<mxfile host="app.diagrams.net" modified="2024-01-24T08:29:05.254Z" agent="Mozilla/5.0 (Windows NT 10.0; Win64; x64) AppleWebKit/537.36 (KHTML, like Gecko) Chrome/120.0.0.0 Safari/537.36" etag="fkJ4yuESlw9JsMAdHewq" version="23.0.0" type="device" pages="3">
  <diagram name="USECASE" id="1oT7VtpavyQXEe0fjs3A">
    <mxGraphModel dx="880" dy="1603" grid="1" gridSize="10" guides="1" tooltips="1" connect="1" arrows="1" fold="1" page="1" pageScale="1" pageWidth="827" pageHeight="1169" math="0" shadow="0">
      <root>
        <mxCell id="0" />
        <mxCell id="1" parent="0" />
        <mxCell id="70QSGBtpCWmWg1ejvot2-9" value="비회원" style="shape=umlActor;verticalLabelPosition=bottom;verticalAlign=top;html=1;outlineConnect=0;" parent="1" vertex="1">
          <mxGeometry x="100" y="270" width="30" height="60" as="geometry" />
        </mxCell>
        <mxCell id="70QSGBtpCWmWg1ejvot2-10" value="회원" style="shape=umlActor;verticalLabelPosition=bottom;verticalAlign=top;html=1;outlineConnect=0;" parent="1" vertex="1">
          <mxGeometry x="90" y="395" width="30" height="60" as="geometry" />
        </mxCell>
        <mxCell id="70QSGBtpCWmWg1ejvot2-11" value="관리자" style="shape=umlActor;verticalLabelPosition=bottom;verticalAlign=top;html=1;outlineConnect=0;" parent="1" vertex="1">
          <mxGeometry x="910" y="355" width="30" height="60" as="geometry" />
        </mxCell>
        <mxCell id="70QSGBtpCWmWg1ejvot2-17" value="코리아아이티&lt;br&gt;SYSTEM" style="shape=umlFrame;whiteSpace=wrap;html=1;pointerEvents=0;width=90;height=40;" parent="1" vertex="1">
          <mxGeometry x="170" y="-180" width="660" height="1000" as="geometry" />
        </mxCell>
        <mxCell id="70QSGBtpCWmWg1ejvot2-18" value="회원가입" style="ellipse;whiteSpace=wrap;html=1;" parent="1" vertex="1">
          <mxGeometry x="270" y="240" width="60" height="40" as="geometry" />
        </mxCell>
        <mxCell id="70QSGBtpCWmWg1ejvot2-22" value="회원수정" style="ellipse;whiteSpace=wrap;html=1;" parent="1" vertex="1">
          <mxGeometry x="270" y="410" width="60" height="40" as="geometry" />
        </mxCell>
        <mxCell id="70QSGBtpCWmWg1ejvot2-23" value="회원탈퇴" style="ellipse;whiteSpace=wrap;html=1;" parent="1" vertex="1">
          <mxGeometry x="270" y="470" width="60" height="40" as="geometry" />
        </mxCell>
        <mxCell id="70QSGBtpCWmWg1ejvot2-24" value="회원정보조회" style="ellipse;whiteSpace=wrap;html=1;" parent="1" vertex="1">
          <mxGeometry x="270" y="540" width="60" height="40" as="geometry" />
        </mxCell>
        <mxCell id="70QSGBtpCWmWg1ejvot2-25" value="" style="endArrow=none;html=1;rounded=0;entryX=0;entryY=0.5;entryDx=0;entryDy=0;" parent="1" source="70QSGBtpCWmWg1ejvot2-9" target="70QSGBtpCWmWg1ejvot2-18" edge="1">
          <mxGeometry width="50" height="50" relative="1" as="geometry">
            <mxPoint x="390" y="450" as="sourcePoint" />
            <mxPoint x="440" y="400" as="targetPoint" />
          </mxGeometry>
        </mxCell>
        <mxCell id="70QSGBtpCWmWg1ejvot2-26" value="use" style="edgeLabel;html=1;align=center;verticalAlign=middle;resizable=0;points=[];" parent="70QSGBtpCWmWg1ejvot2-25" vertex="1" connectable="0">
          <mxGeometry x="0.1031" y="-1" relative="1" as="geometry">
            <mxPoint as="offset" />
          </mxGeometry>
        </mxCell>
        <mxCell id="70QSGBtpCWmWg1ejvot2-27" value="" style="endArrow=none;html=1;rounded=0;entryX=0.021;entryY=0.686;entryDx=0;entryDy=0;entryPerimeter=0;" parent="1" source="70QSGBtpCWmWg1ejvot2-10" target="70QSGBtpCWmWg1ejvot2-22" edge="1">
          <mxGeometry width="50" height="50" relative="1" as="geometry">
            <mxPoint x="140" y="309" as="sourcePoint" />
            <mxPoint x="280" y="300" as="targetPoint" />
          </mxGeometry>
        </mxCell>
        <mxCell id="70QSGBtpCWmWg1ejvot2-28" value="use" style="edgeLabel;html=1;align=center;verticalAlign=middle;resizable=0;points=[];" parent="70QSGBtpCWmWg1ejvot2-27" vertex="1" connectable="0">
          <mxGeometry x="0.1031" y="-1" relative="1" as="geometry">
            <mxPoint as="offset" />
          </mxGeometry>
        </mxCell>
        <mxCell id="70QSGBtpCWmWg1ejvot2-29" value="" style="endArrow=none;html=1;rounded=0;" parent="1" source="70QSGBtpCWmWg1ejvot2-10" target="70QSGBtpCWmWg1ejvot2-23" edge="1">
          <mxGeometry width="50" height="50" relative="1" as="geometry">
            <mxPoint x="140" y="410" as="sourcePoint" />
            <mxPoint x="290" y="310" as="targetPoint" />
          </mxGeometry>
        </mxCell>
        <mxCell id="70QSGBtpCWmWg1ejvot2-30" value="use" style="edgeLabel;html=1;align=center;verticalAlign=middle;resizable=0;points=[];" parent="70QSGBtpCWmWg1ejvot2-29" vertex="1" connectable="0">
          <mxGeometry x="0.1031" y="-1" relative="1" as="geometry">
            <mxPoint as="offset" />
          </mxGeometry>
        </mxCell>
        <mxCell id="70QSGBtpCWmWg1ejvot2-31" value="" style="endArrow=none;html=1;rounded=0;entryX=0;entryY=0.5;entryDx=0;entryDy=0;" parent="1" source="70QSGBtpCWmWg1ejvot2-10" target="70QSGBtpCWmWg1ejvot2-24" edge="1">
          <mxGeometry width="50" height="50" relative="1" as="geometry">
            <mxPoint x="140" y="426" as="sourcePoint" />
            <mxPoint x="300" y="320" as="targetPoint" />
          </mxGeometry>
        </mxCell>
        <mxCell id="70QSGBtpCWmWg1ejvot2-32" value="use" style="edgeLabel;html=1;align=center;verticalAlign=middle;resizable=0;points=[];" parent="70QSGBtpCWmWg1ejvot2-31" vertex="1" connectable="0">
          <mxGeometry x="0.1031" y="-1" relative="1" as="geometry">
            <mxPoint as="offset" />
          </mxGeometry>
        </mxCell>
        <mxCell id="70QSGBtpCWmWg1ejvot2-35" value="로그인" style="ellipse;whiteSpace=wrap;html=1;" parent="1" vertex="1">
          <mxGeometry x="430" y="430" width="60" height="40" as="geometry" />
        </mxCell>
        <mxCell id="70QSGBtpCWmWg1ejvot2-36" value="" style="endArrow=open;dashed=1;html=1;rounded=0;exitX=1;exitY=0.5;exitDx=0;exitDy=0;entryX=0;entryY=0.5;entryDx=0;entryDy=0;endFill=0;" parent="1" source="70QSGBtpCWmWg1ejvot2-22" target="70QSGBtpCWmWg1ejvot2-35" edge="1">
          <mxGeometry width="50" height="50" relative="1" as="geometry">
            <mxPoint x="390" y="530" as="sourcePoint" />
            <mxPoint x="440" y="480" as="targetPoint" />
          </mxGeometry>
        </mxCell>
        <mxCell id="70QSGBtpCWmWg1ejvot2-42" value="&amp;lt;&amp;lt;include&amp;gt;&amp;gt;" style="edgeLabel;html=1;align=center;verticalAlign=middle;resizable=0;points=[];" parent="70QSGBtpCWmWg1ejvot2-36" vertex="1" connectable="0">
          <mxGeometry x="-0.0863" y="2" relative="1" as="geometry">
            <mxPoint as="offset" />
          </mxGeometry>
        </mxCell>
        <mxCell id="70QSGBtpCWmWg1ejvot2-37" value="" style="endArrow=open;dashed=1;html=1;rounded=0;exitX=0.983;exitY=0.4;exitDx=0;exitDy=0;entryX=-0.017;entryY=0.664;entryDx=0;entryDy=0;exitPerimeter=0;entryPerimeter=0;endFill=0;" parent="1" source="70QSGBtpCWmWg1ejvot2-23" target="70QSGBtpCWmWg1ejvot2-35" edge="1">
          <mxGeometry width="50" height="50" relative="1" as="geometry">
            <mxPoint x="340" y="440" as="sourcePoint" />
            <mxPoint x="440" y="450" as="targetPoint" />
          </mxGeometry>
        </mxCell>
        <mxCell id="70QSGBtpCWmWg1ejvot2-40" value="&amp;lt;&amp;lt;include&amp;gt;&amp;gt;" style="edgeLabel;html=1;align=center;verticalAlign=middle;resizable=0;points=[];" parent="70QSGBtpCWmWg1ejvot2-37" vertex="1" connectable="0">
          <mxGeometry x="-0.202" relative="1" as="geometry">
            <mxPoint as="offset" />
          </mxGeometry>
        </mxCell>
        <mxCell id="70QSGBtpCWmWg1ejvot2-38" value="" style="endArrow=open;dashed=1;html=1;rounded=0;exitX=1;exitY=0.5;exitDx=0;exitDy=0;entryX=0.05;entryY=0.75;entryDx=0;entryDy=0;entryPerimeter=0;endFill=0;" parent="1" source="70QSGBtpCWmWg1ejvot2-24" target="70QSGBtpCWmWg1ejvot2-35" edge="1">
          <mxGeometry width="50" height="50" relative="1" as="geometry">
            <mxPoint x="350" y="450" as="sourcePoint" />
            <mxPoint x="450" y="460" as="targetPoint" />
          </mxGeometry>
        </mxCell>
        <mxCell id="70QSGBtpCWmWg1ejvot2-39" value="&amp;lt;&amp;lt;include&amp;gt;&amp;gt;" style="edgeLabel;html=1;align=center;verticalAlign=middle;resizable=0;points=[];" parent="70QSGBtpCWmWg1ejvot2-38" vertex="1" connectable="0">
          <mxGeometry x="0.473" y="-3" relative="1" as="geometry">
            <mxPoint x="-18" y="19" as="offset" />
          </mxGeometry>
        </mxCell>
        <mxCell id="70QSGBtpCWmWg1ejvot2-43" value="학원소개" style="ellipse;whiteSpace=wrap;html=1;" parent="1" vertex="1">
          <mxGeometry x="270" y="330" width="60" height="40" as="geometry" />
        </mxCell>
        <mxCell id="70QSGBtpCWmWg1ejvot2-44" value="" style="endArrow=none;html=1;rounded=0;entryX=0;entryY=0.25;entryDx=0;entryDy=0;entryPerimeter=0;" parent="1" source="70QSGBtpCWmWg1ejvot2-9" target="70QSGBtpCWmWg1ejvot2-43" edge="1">
          <mxGeometry width="50" height="50" relative="1" as="geometry">
            <mxPoint x="140" y="306" as="sourcePoint" />
            <mxPoint x="300" y="260" as="targetPoint" />
          </mxGeometry>
        </mxCell>
        <mxCell id="70QSGBtpCWmWg1ejvot2-45" value="use" style="edgeLabel;html=1;align=center;verticalAlign=middle;resizable=0;points=[];" parent="70QSGBtpCWmWg1ejvot2-44" vertex="1" connectable="0">
          <mxGeometry x="0.1031" y="-1" relative="1" as="geometry">
            <mxPoint as="offset" />
          </mxGeometry>
        </mxCell>
        <mxCell id="70QSGBtpCWmWg1ejvot2-46" value="" style="endArrow=none;html=1;rounded=0;entryX=-0.007;entryY=0.679;entryDx=0;entryDy=0;entryPerimeter=0;" parent="1" source="70QSGBtpCWmWg1ejvot2-10" target="70QSGBtpCWmWg1ejvot2-43" edge="1">
          <mxGeometry width="50" height="50" relative="1" as="geometry">
            <mxPoint x="140" y="315" as="sourcePoint" />
            <mxPoint x="280" y="360" as="targetPoint" />
          </mxGeometry>
        </mxCell>
        <mxCell id="70QSGBtpCWmWg1ejvot2-47" value="use" style="edgeLabel;html=1;align=center;verticalAlign=middle;resizable=0;points=[];" parent="70QSGBtpCWmWg1ejvot2-46" vertex="1" connectable="0">
          <mxGeometry x="0.1031" y="-1" relative="1" as="geometry">
            <mxPoint as="offset" />
          </mxGeometry>
        </mxCell>
        <mxCell id="70QSGBtpCWmWg1ejvot2-52" value="" style="edgeStyle=orthogonalEdgeStyle;rounded=0;orthogonalLoop=1;jettySize=auto;html=1;endArrow=block;endFill=0;" parent="1" source="70QSGBtpCWmWg1ejvot2-48" target="70QSGBtpCWmWg1ejvot2-43" edge="1">
          <mxGeometry relative="1" as="geometry" />
        </mxCell>
        <mxCell id="70QSGBtpCWmWg1ejvot2-48" value="소개" style="ellipse;whiteSpace=wrap;html=1;" parent="1" vertex="1">
          <mxGeometry x="374" y="300" width="56" height="30" as="geometry" />
        </mxCell>
        <mxCell id="70QSGBtpCWmWg1ejvot2-51" value="" style="edgeStyle=orthogonalEdgeStyle;rounded=0;orthogonalLoop=1;jettySize=auto;html=1;endArrow=block;endFill=0;" parent="1" source="70QSGBtpCWmWg1ejvot2-49" target="70QSGBtpCWmWg1ejvot2-43" edge="1">
          <mxGeometry relative="1" as="geometry" />
        </mxCell>
        <mxCell id="70QSGBtpCWmWg1ejvot2-49" value="연혁" style="ellipse;whiteSpace=wrap;html=1;" parent="1" vertex="1">
          <mxGeometry x="374" y="335" width="56" height="30" as="geometry" />
        </mxCell>
        <mxCell id="70QSGBtpCWmWg1ejvot2-53" value="" style="edgeStyle=orthogonalEdgeStyle;rounded=0;orthogonalLoop=1;jettySize=auto;html=1;endArrow=block;endFill=0;" parent="1" source="70QSGBtpCWmWg1ejvot2-50" target="70QSGBtpCWmWg1ejvot2-43" edge="1">
          <mxGeometry relative="1" as="geometry" />
        </mxCell>
        <mxCell id="70QSGBtpCWmWg1ejvot2-50" value="보도자료" style="ellipse;whiteSpace=wrap;html=1;" parent="1" vertex="1">
          <mxGeometry x="374" y="370" width="56" height="30" as="geometry" />
        </mxCell>
        <mxCell id="70QSGBtpCWmWg1ejvot2-55" value="" style="edgeStyle=orthogonalEdgeStyle;rounded=0;orthogonalLoop=1;jettySize=auto;html=1;endArrow=open;endFill=0;dashed=1;" parent="1" source="70QSGBtpCWmWg1ejvot2-54" target="70QSGBtpCWmWg1ejvot2-43" edge="1">
          <mxGeometry relative="1" as="geometry">
            <Array as="points">
              <mxPoint x="401" y="290" />
              <mxPoint x="300" y="290" />
            </Array>
          </mxGeometry>
        </mxCell>
        <mxCell id="70QSGBtpCWmWg1ejvot2-56" value="&amp;lt;&amp;lt;extends&amp;gt;&amp;gt;" style="edgeLabel;html=1;align=center;verticalAlign=middle;resizable=0;points=[];" parent="70QSGBtpCWmWg1ejvot2-55" vertex="1" connectable="0">
          <mxGeometry x="-0.1642" y="-1" relative="1" as="geometry">
            <mxPoint as="offset" />
          </mxGeometry>
        </mxCell>
        <mxCell id="70QSGBtpCWmWg1ejvot2-54" value="&lt;font style=&quot;font-size: 9px;&quot;&gt;수강료 조회&lt;/font&gt;" style="ellipse;whiteSpace=wrap;html=1;" parent="1" vertex="1">
          <mxGeometry x="374" y="255" width="54" height="30" as="geometry" />
        </mxCell>
        <mxCell id="eNOxvGE6mksWMTdkX6A9-2" value="회원관리" style="ellipse;whiteSpace=wrap;html=1;" parent="1" vertex="1">
          <mxGeometry x="670" y="257.5" width="60" height="40" as="geometry" />
        </mxCell>
        <mxCell id="eNOxvGE6mksWMTdkX6A9-3" value="강사관리" style="ellipse;whiteSpace=wrap;html=1;" parent="1" vertex="1">
          <mxGeometry x="670" y="352.5" width="60" height="40" as="geometry" />
        </mxCell>
        <mxCell id="eNOxvGE6mksWMTdkX6A9-4" value="통계정보" style="ellipse;whiteSpace=wrap;html=1;" parent="1" vertex="1">
          <mxGeometry x="670" y="450" width="60" height="40" as="geometry" />
        </mxCell>
        <mxCell id="eNOxvGE6mksWMTdkX6A9-5" value="" style="endArrow=none;html=1;rounded=0;entryX=1;entryY=1;entryDx=0;entryDy=0;" parent="1" source="70QSGBtpCWmWg1ejvot2-11" target="eNOxvGE6mksWMTdkX6A9-2" edge="1">
          <mxGeometry width="50" height="50" relative="1" as="geometry">
            <mxPoint x="140" y="306" as="sourcePoint" />
            <mxPoint x="280" y="270" as="targetPoint" />
          </mxGeometry>
        </mxCell>
        <mxCell id="eNOxvGE6mksWMTdkX6A9-6" value="use" style="edgeLabel;html=1;align=center;verticalAlign=middle;resizable=0;points=[];" parent="eNOxvGE6mksWMTdkX6A9-5" vertex="1" connectable="0">
          <mxGeometry x="0.1031" y="-1" relative="1" as="geometry">
            <mxPoint as="offset" />
          </mxGeometry>
        </mxCell>
        <mxCell id="eNOxvGE6mksWMTdkX6A9-7" value="" style="endArrow=none;html=1;rounded=0;entryX=0.994;entryY=0.396;entryDx=0;entryDy=0;entryPerimeter=0;" parent="1" source="70QSGBtpCWmWg1ejvot2-11" target="eNOxvGE6mksWMTdkX6A9-3" edge="1">
          <mxGeometry width="50" height="50" relative="1" as="geometry">
            <mxPoint x="780" y="384" as="sourcePoint" />
            <mxPoint x="671" y="304" as="targetPoint" />
          </mxGeometry>
        </mxCell>
        <mxCell id="eNOxvGE6mksWMTdkX6A9-8" value="use" style="edgeLabel;html=1;align=center;verticalAlign=middle;resizable=0;points=[];" parent="eNOxvGE6mksWMTdkX6A9-7" vertex="1" connectable="0">
          <mxGeometry x="0.1031" y="-1" relative="1" as="geometry">
            <mxPoint as="offset" />
          </mxGeometry>
        </mxCell>
        <mxCell id="eNOxvGE6mksWMTdkX6A9-9" value="" style="endArrow=none;html=1;rounded=0;entryX=0.982;entryY=0.314;entryDx=0;entryDy=0;entryPerimeter=0;" parent="1" source="70QSGBtpCWmWg1ejvot2-11" target="eNOxvGE6mksWMTdkX6A9-4" edge="1">
          <mxGeometry width="50" height="50" relative="1" as="geometry">
            <mxPoint x="780" y="393" as="sourcePoint" />
            <mxPoint x="680" y="381" as="targetPoint" />
          </mxGeometry>
        </mxCell>
        <mxCell id="eNOxvGE6mksWMTdkX6A9-10" value="use" style="edgeLabel;html=1;align=center;verticalAlign=middle;resizable=0;points=[];" parent="eNOxvGE6mksWMTdkX6A9-9" vertex="1" connectable="0">
          <mxGeometry x="0.1031" y="-1" relative="1" as="geometry">
            <mxPoint as="offset" />
          </mxGeometry>
        </mxCell>
        <mxCell id="eNOxvGE6mksWMTdkX6A9-14" value="" style="edgeStyle=orthogonalEdgeStyle;rounded=0;orthogonalLoop=1;jettySize=auto;html=1;endArrow=block;endFill=0;" parent="1" source="eNOxvGE6mksWMTdkX6A9-12" target="eNOxvGE6mksWMTdkX6A9-2" edge="1">
          <mxGeometry relative="1" as="geometry">
            <Array as="points">
              <mxPoint x="610" y="277.5" />
            </Array>
          </mxGeometry>
        </mxCell>
        <mxCell id="eNOxvGE6mksWMTdkX6A9-20" value="" style="edgeStyle=orthogonalEdgeStyle;rounded=0;orthogonalLoop=1;jettySize=auto;html=1;endArrow=block;endFill=0;" parent="1" source="eNOxvGE6mksWMTdkX6A9-11" target="eNOxvGE6mksWMTdkX6A9-2" edge="1">
          <mxGeometry relative="1" as="geometry">
            <Array as="points">
              <mxPoint x="620" y="229.5" />
              <mxPoint x="620" y="277.5" />
            </Array>
          </mxGeometry>
        </mxCell>
        <mxCell id="eNOxvGE6mksWMTdkX6A9-29" value="" style="edgeStyle=orthogonalEdgeStyle;rounded=0;orthogonalLoop=1;jettySize=auto;html=1;endArrow=none;endFill=0;startArrow=block;startFill=0;" parent="1" source="eNOxvGE6mksWMTdkX6A9-11" target="eNOxvGE6mksWMTdkX6A9-22" edge="1">
          <mxGeometry relative="1" as="geometry" />
        </mxCell>
        <mxCell id="eNOxvGE6mksWMTdkX6A9-30" value="" style="edgeStyle=orthogonalEdgeStyle;rounded=0;orthogonalLoop=1;jettySize=auto;html=1;endArrow=none;endFill=0;startArrow=block;startFill=0;" parent="1" source="eNOxvGE6mksWMTdkX6A9-11" target="eNOxvGE6mksWMTdkX6A9-21" edge="1">
          <mxGeometry relative="1" as="geometry" />
        </mxCell>
        <mxCell id="eNOxvGE6mksWMTdkX6A9-11" value="회원조회" style="ellipse;whiteSpace=wrap;html=1;" parent="1" vertex="1">
          <mxGeometry x="540" y="207.5" width="60" height="45" as="geometry" />
        </mxCell>
        <mxCell id="eNOxvGE6mksWMTdkX6A9-16" value="" style="edgeStyle=orthogonalEdgeStyle;rounded=0;orthogonalLoop=1;jettySize=auto;html=1;endArrow=block;endFill=0;" parent="1" source="eNOxvGE6mksWMTdkX6A9-13" target="eNOxvGE6mksWMTdkX6A9-2" edge="1">
          <mxGeometry relative="1" as="geometry">
            <Array as="points">
              <mxPoint x="620" y="332.5" />
              <mxPoint x="620" y="277.5" />
            </Array>
          </mxGeometry>
        </mxCell>
        <mxCell id="eNOxvGE6mksWMTdkX6A9-12" value="회원수정" style="ellipse;whiteSpace=wrap;html=1;" parent="1" vertex="1">
          <mxGeometry x="540" y="257.5" width="60" height="40" as="geometry" />
        </mxCell>
        <mxCell id="eNOxvGE6mksWMTdkX6A9-13" value="회원삭제" style="ellipse;whiteSpace=wrap;html=1;" parent="1" vertex="1">
          <mxGeometry x="540" y="307.5" width="60" height="40" as="geometry" />
        </mxCell>
        <mxCell id="eNOxvGE6mksWMTdkX6A9-21" value="키워드" style="ellipse;whiteSpace=wrap;html=1;" parent="1" vertex="1">
          <mxGeometry x="510" y="127.5" width="40" height="45" as="geometry" />
        </mxCell>
        <mxCell id="eNOxvGE6mksWMTdkX6A9-22" value="전체" style="ellipse;whiteSpace=wrap;html=1;" parent="1" vertex="1">
          <mxGeometry x="590" y="127.5" width="40" height="45" as="geometry" />
        </mxCell>
        <mxCell id="eNOxvGE6mksWMTdkX6A9-32" value="수강신청" style="ellipse;whiteSpace=wrap;html=1;" parent="1" vertex="1">
          <mxGeometry x="270" y="60" width="60" height="40" as="geometry" />
        </mxCell>
        <mxCell id="eNOxvGE6mksWMTdkX6A9-33" value="강의조회" style="ellipse;whiteSpace=wrap;html=1;" parent="1" vertex="1">
          <mxGeometry x="270" y="150" width="60" height="40" as="geometry" />
        </mxCell>
        <mxCell id="eNOxvGE6mksWMTdkX6A9-50" value="" style="edgeStyle=orthogonalEdgeStyle;rounded=0;orthogonalLoop=1;jettySize=auto;html=1;endArrow=block;endFill=0;" parent="1" source="eNOxvGE6mksWMTdkX6A9-34" target="eNOxvGE6mksWMTdkX6A9-42" edge="1">
          <mxGeometry relative="1" as="geometry" />
        </mxCell>
        <mxCell id="YK5wTkmuDBtrDPHsWVAm-8" value="" style="edgeStyle=orthogonalEdgeStyle;rounded=0;orthogonalLoop=1;jettySize=auto;html=1;endArrow=none;endFill=0;startArrow=open;startFill=0;dashed=1;dashPattern=8 8;" parent="1" source="eNOxvGE6mksWMTdkX6A9-34" target="eNOxvGE6mksWMTdkX6A9-35" edge="1">
          <mxGeometry relative="1" as="geometry" />
        </mxCell>
        <mxCell id="YK5wTkmuDBtrDPHsWVAm-9" value="&amp;lt;&amp;lt;include&amp;gt;&amp;gt;" style="edgeLabel;html=1;align=center;verticalAlign=middle;resizable=0;points=[];" parent="YK5wTkmuDBtrDPHsWVAm-8" vertex="1" connectable="0">
          <mxGeometry x="0.1357" y="-1" relative="1" as="geometry">
            <mxPoint as="offset" />
          </mxGeometry>
        </mxCell>
        <mxCell id="eNOxvGE6mksWMTdkX6A9-34" value="결제방식" style="ellipse;whiteSpace=wrap;html=1;" parent="1" vertex="1">
          <mxGeometry x="510" y="-20" width="60" height="40" as="geometry" />
        </mxCell>
        <mxCell id="eNOxvGE6mksWMTdkX6A9-35" value="결제 정보&lt;br&gt;확인" style="ellipse;whiteSpace=wrap;html=1;" parent="1" vertex="1">
          <mxGeometry x="510" y="60" width="60" height="40" as="geometry" />
        </mxCell>
        <mxCell id="eNOxvGE6mksWMTdkX6A9-36" value="결제시스템" style="rounded=0;whiteSpace=wrap;html=1;" parent="1" vertex="1">
          <mxGeometry x="860" y="-100" width="120" height="60" as="geometry" />
        </mxCell>
        <mxCell id="eNOxvGE6mksWMTdkX6A9-37" value="" style="endArrow=none;html=1;rounded=0;entryX=0;entryY=0.5;entryDx=0;entryDy=0;exitX=1;exitY=0.5;exitDx=0;exitDy=0;" parent="1" source="eNOxvGE6mksWMTdkX6A9-35" target="eNOxvGE6mksWMTdkX6A9-36" edge="1">
          <mxGeometry width="50" height="50" relative="1" as="geometry">
            <mxPoint x="640" y="20" as="sourcePoint" />
            <mxPoint x="600" y="-30" as="targetPoint" />
          </mxGeometry>
        </mxCell>
        <mxCell id="eNOxvGE6mksWMTdkX6A9-38" value="use" style="edgeLabel;html=1;align=center;verticalAlign=middle;resizable=0;points=[];" parent="eNOxvGE6mksWMTdkX6A9-37" vertex="1" connectable="0">
          <mxGeometry x="-0.0728" y="-2" relative="1" as="geometry">
            <mxPoint as="offset" />
          </mxGeometry>
        </mxCell>
        <mxCell id="eNOxvGE6mksWMTdkX6A9-45" value="" style="edgeStyle=orthogonalEdgeStyle;rounded=0;orthogonalLoop=1;jettySize=auto;html=1;endArrow=block;endFill=0;" parent="1" source="eNOxvGE6mksWMTdkX6A9-41" target="eNOxvGE6mksWMTdkX6A9-32" edge="1">
          <mxGeometry relative="1" as="geometry" />
        </mxCell>
        <mxCell id="eNOxvGE6mksWMTdkX6A9-41" value="강의상세 조회" style="ellipse;whiteSpace=wrap;html=1;" parent="1" vertex="1">
          <mxGeometry x="370" y="60" width="60" height="40" as="geometry" />
        </mxCell>
        <mxCell id="eNOxvGE6mksWMTdkX6A9-46" value="" style="edgeStyle=orthogonalEdgeStyle;rounded=0;orthogonalLoop=1;jettySize=auto;html=1;endArrow=block;endFill=0;" parent="1" source="eNOxvGE6mksWMTdkX6A9-42" target="eNOxvGE6mksWMTdkX6A9-41" edge="1">
          <mxGeometry relative="1" as="geometry" />
        </mxCell>
        <mxCell id="eNOxvGE6mksWMTdkX6A9-42" value="결제 요청" style="ellipse;whiteSpace=wrap;html=1;" parent="1" vertex="1">
          <mxGeometry x="410" y="-20" width="60" height="40" as="geometry" />
        </mxCell>
        <mxCell id="eNOxvGE6mksWMTdkX6A9-43" value="" style="endArrow=open;dashed=1;html=1;rounded=0;exitX=0.971;exitY=0.684;exitDx=0;exitDy=0;entryX=0.5;entryY=0;entryDx=0;entryDy=0;endFill=0;exitPerimeter=0;" parent="1" source="eNOxvGE6mksWMTdkX6A9-32" target="70QSGBtpCWmWg1ejvot2-35" edge="1">
          <mxGeometry width="50" height="50" relative="1" as="geometry">
            <mxPoint x="340" y="440" as="sourcePoint" />
            <mxPoint x="440" y="460" as="targetPoint" />
            <Array as="points">
              <mxPoint x="470" y="200" />
            </Array>
          </mxGeometry>
        </mxCell>
        <mxCell id="eNOxvGE6mksWMTdkX6A9-44" value="&amp;lt;&amp;lt;include&amp;gt;&amp;gt;" style="edgeLabel;html=1;align=center;verticalAlign=middle;resizable=0;points=[];" parent="eNOxvGE6mksWMTdkX6A9-43" vertex="1" connectable="0">
          <mxGeometry x="-0.0863" y="2" relative="1" as="geometry">
            <mxPoint x="-2" y="23" as="offset" />
          </mxGeometry>
        </mxCell>
        <mxCell id="eNOxvGE6mksWMTdkX6A9-49" value="" style="edgeStyle=orthogonalEdgeStyle;rounded=0;orthogonalLoop=1;jettySize=auto;html=1;endArrow=block;endFill=0;" parent="1" source="eNOxvGE6mksWMTdkX6A9-48" target="eNOxvGE6mksWMTdkX6A9-41" edge="1">
          <mxGeometry relative="1" as="geometry" />
        </mxCell>
        <mxCell id="eNOxvGE6mksWMTdkX6A9-48" value="장바구니" style="ellipse;whiteSpace=wrap;html=1;" parent="1" vertex="1">
          <mxGeometry x="330" y="-20" width="60" height="40" as="geometry" />
        </mxCell>
        <mxCell id="eNOxvGE6mksWMTdkX6A9-54" value="" style="edgeStyle=orthogonalEdgeStyle;rounded=0;orthogonalLoop=1;jettySize=auto;html=1;endArrow=block;endFill=0;" parent="1" source="eNOxvGE6mksWMTdkX6A9-51" target="eNOxvGE6mksWMTdkX6A9-34" edge="1">
          <mxGeometry relative="1" as="geometry">
            <Array as="points">
              <mxPoint x="485" y="-40" />
              <mxPoint x="540" y="-40" />
            </Array>
          </mxGeometry>
        </mxCell>
        <mxCell id="eNOxvGE6mksWMTdkX6A9-51" value="신용카드&lt;br&gt;" style="ellipse;whiteSpace=wrap;html=1;" parent="1" vertex="1">
          <mxGeometry x="460" y="-90" width="50" height="40" as="geometry" />
        </mxCell>
        <mxCell id="eNOxvGE6mksWMTdkX6A9-56" value="" style="edgeStyle=orthogonalEdgeStyle;rounded=0;orthogonalLoop=1;jettySize=auto;html=1;endArrow=block;endFill=0;" parent="1" source="eNOxvGE6mksWMTdkX6A9-53" target="eNOxvGE6mksWMTdkX6A9-34" edge="1">
          <mxGeometry relative="1" as="geometry" />
        </mxCell>
        <mxCell id="eNOxvGE6mksWMTdkX6A9-61" value="" style="edgeStyle=orthogonalEdgeStyle;rounded=0;orthogonalLoop=1;jettySize=auto;html=1;endArrow=block;endFill=0;" parent="1" source="eNOxvGE6mksWMTdkX6A9-52" target="eNOxvGE6mksWMTdkX6A9-34" edge="1">
          <mxGeometry relative="1" as="geometry">
            <Array as="points">
              <mxPoint x="540" y="-40" />
            </Array>
          </mxGeometry>
        </mxCell>
        <mxCell id="eNOxvGE6mksWMTdkX6A9-52" value="휴대폰" style="ellipse;whiteSpace=wrap;html=1;" parent="1" vertex="1">
          <mxGeometry x="570" y="-90" width="50" height="40" as="geometry" />
        </mxCell>
        <mxCell id="eNOxvGE6mksWMTdkX6A9-55" value="" style="edgeStyle=orthogonalEdgeStyle;rounded=0;orthogonalLoop=1;jettySize=auto;html=1;endArrow=block;endFill=0;" parent="1" source="eNOxvGE6mksWMTdkX6A9-53" target="eNOxvGE6mksWMTdkX6A9-34" edge="1">
          <mxGeometry relative="1" as="geometry" />
        </mxCell>
        <mxCell id="eNOxvGE6mksWMTdkX6A9-53" value="무통장" style="ellipse;whiteSpace=wrap;html=1;" parent="1" vertex="1">
          <mxGeometry x="515" y="-90" width="50" height="40" as="geometry" />
        </mxCell>
        <mxCell id="YK5wTkmuDBtrDPHsWVAm-1" value="월별" style="ellipse;whiteSpace=wrap;html=1;" parent="1" vertex="1">
          <mxGeometry x="570" y="415" width="60" height="40" as="geometry" />
        </mxCell>
        <mxCell id="YK5wTkmuDBtrDPHsWVAm-2" value="일별" style="ellipse;whiteSpace=wrap;html=1;" parent="1" vertex="1">
          <mxGeometry x="570" y="470" width="60" height="40" as="geometry" />
        </mxCell>
        <mxCell id="YK5wTkmuDBtrDPHsWVAm-3" value="주별" style="ellipse;whiteSpace=wrap;html=1;" parent="1" vertex="1">
          <mxGeometry x="570" y="530" width="60" height="40" as="geometry" />
        </mxCell>
        <mxCell id="JvfSyjzfMhndOEmlCmVb-1" value="강의정보관리" style="ellipse;whiteSpace=wrap;html=1;" parent="1" vertex="1">
          <mxGeometry x="670" y="520" width="60" height="40" as="geometry" />
        </mxCell>
        <mxCell id="JvfSyjzfMhndOEmlCmVb-2" value="" style="endArrow=none;html=1;rounded=0;entryX=1.017;entryY=0.25;entryDx=0;entryDy=0;entryPerimeter=0;" parent="1" target="JvfSyjzfMhndOEmlCmVb-1" edge="1">
          <mxGeometry width="50" height="50" relative="1" as="geometry">
            <mxPoint x="910" y="410" as="sourcePoint" />
            <mxPoint x="729" y="482" as="targetPoint" />
          </mxGeometry>
        </mxCell>
        <mxCell id="JvfSyjzfMhndOEmlCmVb-3" value="use" style="edgeLabel;html=1;align=center;verticalAlign=middle;resizable=0;points=[];" parent="JvfSyjzfMhndOEmlCmVb-2" vertex="1" connectable="0">
          <mxGeometry x="0.1031" y="-1" relative="1" as="geometry">
            <mxPoint as="offset" />
          </mxGeometry>
        </mxCell>
        <mxCell id="JvfSyjzfMhndOEmlCmVb-4" value="추가" style="ellipse;whiteSpace=wrap;html=1;" parent="1" vertex="1">
          <mxGeometry x="550" y="620" width="60" height="40" as="geometry" />
        </mxCell>
        <mxCell id="JvfSyjzfMhndOEmlCmVb-5" value="수정" style="ellipse;whiteSpace=wrap;html=1;" parent="1" vertex="1">
          <mxGeometry x="620" y="620" width="60" height="40" as="geometry" />
        </mxCell>
        <mxCell id="JvfSyjzfMhndOEmlCmVb-6" value="삭제" style="ellipse;whiteSpace=wrap;html=1;" parent="1" vertex="1">
          <mxGeometry x="760" y="620" width="60" height="40" as="geometry" />
        </mxCell>
        <mxCell id="JvfSyjzfMhndOEmlCmVb-7" value="조회" style="ellipse;whiteSpace=wrap;html=1;" parent="1" vertex="1">
          <mxGeometry x="690" y="620" width="60" height="40" as="geometry" />
        </mxCell>
        <mxCell id="JvfSyjzfMhndOEmlCmVb-9" value="전체" style="ellipse;whiteSpace=wrap;html=1;" parent="1" vertex="1">
          <mxGeometry x="630" y="690" width="50" height="40" as="geometry" />
        </mxCell>
        <mxCell id="JvfSyjzfMhndOEmlCmVb-10" value="부분" style="ellipse;whiteSpace=wrap;html=1;" parent="1" vertex="1">
          <mxGeometry x="700" y="690" width="50" height="40" as="geometry" />
        </mxCell>
      </root>
    </mxGraphModel>
  </diagram>
  <diagram id="WYRA3XfzjUjftEJgG3Ls" name="요구사항정리">
    <mxGraphModel dx="1434" dy="780" grid="1" gridSize="10" guides="1" tooltips="1" connect="1" arrows="1" fold="1" page="1" pageScale="1" pageWidth="827" pageHeight="1169" math="0" shadow="0">
      <root>
        <mxCell id="0" />
        <mxCell id="1" parent="0" />
        <mxCell id="8MDK9gDb8Gs9CdMvES0l-1" value="" style="rounded=0;whiteSpace=wrap;html=1;" parent="1" vertex="1">
          <mxGeometry x="30" y="20" width="770" height="50" as="geometry" />
        </mxCell>
        <mxCell id="8MDK9gDb8Gs9CdMvES0l-2" value="서비스별 기능 정리 - 기능적 요구사항(C : Create, R : Read, U : Update, D : Delete, BL : Business Logic)" style="text;html=1;align=center;verticalAlign=middle;resizable=0;points=[];autosize=1;strokeColor=none;fillColor=none;" parent="1" vertex="1">
          <mxGeometry x="29" y="30" width="580" height="30" as="geometry" />
        </mxCell>
        <mxCell id="8MDK9gDb8Gs9CdMvES0l-3" value="강의 서비스" style="rounded=0;whiteSpace=wrap;html=1;" parent="1" vertex="1">
          <mxGeometry x="30" y="90" width="250" height="50" as="geometry" />
        </mxCell>
        <mxCell id="8MDK9gDb8Gs9CdMvES0l-4" value="회원 서비스" style="rounded=0;whiteSpace=wrap;html=1;" parent="1" vertex="1">
          <mxGeometry x="310" y="90" width="250" height="50" as="geometry" />
        </mxCell>
        <mxCell id="8MDK9gDb8Gs9CdMvES0l-5" value="&lt;div style=&quot;text-align: justify;&quot;&gt;&lt;span style=&quot;background-color: initial;&quot;&gt;[관리 영역]&lt;/span&gt;&lt;/div&gt;&lt;div style=&quot;text-align: justify;&quot;&gt;&lt;span style=&quot;background-color: initial;&quot;&gt;신규 강의 생성하기 C BL&lt;/span&gt;&lt;/div&gt;&lt;div style=&quot;text-align: justify;&quot;&gt;&lt;span style=&quot;background-color: initial;&quot;&gt;강의 전체 조회하기 R BL&lt;/span&gt;&lt;/div&gt;&lt;div style=&quot;text-align: justify;&quot;&gt;&lt;span style=&quot;background-color: initial;&quot;&gt;강의 부분 조회하기 R BL&lt;/span&gt;&lt;/div&gt;&lt;div style=&quot;text-align: justify;&quot;&gt;&lt;span style=&quot;background-color: initial;&quot;&gt;기존 강의 수정하기 U BL&lt;/span&gt;&lt;/div&gt;&lt;div style=&quot;text-align: justify;&quot;&gt;&lt;span style=&quot;background-color: initial;&quot;&gt;기존 강의 삭제하기 D BL&lt;/span&gt;&lt;/div&gt;&lt;div style=&quot;text-align: justify;&quot;&gt;&lt;span style=&quot;background-color: initial;&quot;&gt;&lt;br&gt;&lt;/span&gt;&lt;/div&gt;&lt;div style=&quot;text-align: justify;&quot;&gt;&lt;span style=&quot;background-color: initial;&quot;&gt;[USE]&lt;/span&gt;&lt;/div&gt;&lt;div style=&quot;text-align: justify;&quot;&gt;강의 수강 신청하기 C BL&lt;/div&gt;&lt;div style=&quot;text-align: justify;&quot;&gt;신청 강의 조회하기 R BL&lt;/div&gt;&lt;div style=&quot;text-align: justify;&quot;&gt;신청 강의 수정하기 U BL&lt;/div&gt;&lt;div style=&quot;text-align: justify;&quot;&gt;신청 강의 삭제하기 D BL&lt;/div&gt;" style="rounded=0;whiteSpace=wrap;html=1;align=center;" parent="1" vertex="1">
          <mxGeometry x="29" y="160" width="250" height="260" as="geometry" />
        </mxCell>
        <mxCell id="8MDK9gDb8Gs9CdMvES0l-6" value="&lt;div style=&quot;text-align: justify;&quot;&gt;&lt;span style=&quot;background-color: initial;&quot;&gt;[관리 영역]&lt;/span&gt;&lt;/div&gt;&lt;div style=&quot;text-align: justify;&quot;&gt;&lt;span style=&quot;background-color: initial;&quot;&gt;회원 가입하기 C&amp;nbsp; BL&lt;/span&gt;&lt;/div&gt;&lt;div style=&quot;text-align: justify;&quot;&gt;&lt;span style=&quot;background-color: initial;&quot;&gt;회원 전체 조회하기 R BL&lt;/span&gt;&lt;/div&gt;&lt;div style=&quot;text-align: justify;&quot;&gt;&lt;span style=&quot;background-color: initial;&quot;&gt;회원 부분 조회하기 R BL&lt;/span&gt;&lt;/div&gt;&lt;div style=&quot;text-align: justify;&quot;&gt;&lt;span style=&quot;background-color: initial;&quot;&gt;회원 정보 수정하기 U BL&lt;/span&gt;&lt;/div&gt;&lt;div style=&quot;text-align: justify;&quot;&gt;&lt;span style=&quot;background-color: initial;&quot;&gt;회원 삭제하기 D BL&lt;/span&gt;&lt;/div&gt;&lt;div style=&quot;text-align: justify; border-color: var(--border-color);&quot;&gt;&lt;span style=&quot;border-color: var(--border-color); background-color: initial;&quot;&gt;&lt;br style=&quot;border-color: var(--border-color);&quot;&gt;&lt;/span&gt;&lt;/div&gt;&lt;div style=&quot;text-align: justify; border-color: var(--border-color);&quot;&gt;&lt;span style=&quot;border-color: var(--border-color); background-color: initial;&quot;&gt;[USE]&lt;/span&gt;&lt;/div&gt;&lt;div style=&quot;text-align: justify; border-color: var(--border-color);&quot;&gt;&lt;span style=&quot;border-color: var(--border-color); background-color: initial;&quot;&gt;회원 가입하기 C&amp;nbsp; BL&lt;br&gt;&lt;/span&gt;&lt;/div&gt;&lt;div style=&quot;text-align: justify; border-color: var(--border-color);&quot;&gt;로그인하기 BL&lt;/div&gt;&lt;div style=&quot;text-align: justify; border-color: var(--border-color);&quot;&gt;로그아웃하기 BL&lt;/div&gt;&lt;div style=&quot;text-align: justify; border-color: var(--border-color);&quot;&gt;나의 정보 확인하기 R BL&lt;/div&gt;&lt;div style=&quot;text-align: justify; border-color: var(--border-color);&quot;&gt;나의 정보 수정하기 U BL&lt;/div&gt;&lt;div style=&quot;text-align: justify; border-color: var(--border-color);&quot;&gt;회원 탈퇴하기 D BL&lt;/div&gt;" style="rounded=0;whiteSpace=wrap;html=1;" parent="1" vertex="1">
          <mxGeometry x="310" y="160" width="250" height="260" as="geometry" />
        </mxCell>
        <mxCell id="8MDK9gDb8Gs9CdMvES0l-7" value="" style="rounded=0;whiteSpace=wrap;html=1;" parent="1" vertex="1">
          <mxGeometry x="30" y="460" width="770" height="50" as="geometry" />
        </mxCell>
        <mxCell id="8MDK9gDb8Gs9CdMvES0l-8" value="영역별(Domain) 별 Permission 정리" style="text;html=1;align=center;verticalAlign=middle;resizable=0;points=[];autosize=1;strokeColor=none;fillColor=none;" parent="1" vertex="1">
          <mxGeometry x="30" y="470" width="210" height="30" as="geometry" />
        </mxCell>
        <mxCell id="8MDK9gDb8Gs9CdMvES0l-9" value="강의 서비스" style="rounded=0;whiteSpace=wrap;html=1;" parent="1" vertex="1">
          <mxGeometry x="30" y="530" width="180" height="50" as="geometry" />
        </mxCell>
        <mxCell id="8MDK9gDb8Gs9CdMvES0l-10" value="강의 서비스" style="rounded=0;whiteSpace=wrap;html=1;" parent="1" vertex="1">
          <mxGeometry x="240" y="530" width="260" height="50" as="geometry" />
        </mxCell>
        <mxCell id="8MDK9gDb8Gs9CdMvES0l-11" value="&lt;div style=&quot;&quot;&gt;회원&lt;/div&gt;&lt;div style=&quot;&quot;&gt;(USER)&lt;/div&gt;" style="rounded=0;whiteSpace=wrap;html=1;align=center;" parent="1" vertex="1">
          <mxGeometry x="30" y="595" width="180" height="205" as="geometry" />
        </mxCell>
        <mxCell id="8MDK9gDb8Gs9CdMvES0l-12" value="&lt;div style=&quot;&quot;&gt;비회원&lt;/div&gt;&lt;div style=&quot;&quot;&gt;(ANONYMOUS)&lt;/div&gt;" style="rounded=0;whiteSpace=wrap;html=1;align=center;" parent="1" vertex="1">
          <mxGeometry x="29" y="825" width="181" height="205" as="geometry" />
        </mxCell>
        <mxCell id="8MDK9gDb8Gs9CdMvES0l-13" value="&lt;div style=&quot;&quot;&gt;직원&lt;/div&gt;&lt;div style=&quot;&quot;&gt;(MANAGER)&lt;/div&gt;" style="rounded=0;whiteSpace=wrap;html=1;align=center;" parent="1" vertex="1">
          <mxGeometry x="30" y="1060" width="180" height="200" as="geometry" />
        </mxCell>
        <mxCell id="8MDK9gDb8Gs9CdMvES0l-14" value="&lt;div style=&quot;&quot;&gt;관리자&lt;/div&gt;&lt;div style=&quot;&quot;&gt;(ADMIN)&lt;/div&gt;" style="rounded=0;whiteSpace=wrap;html=1;align=center;" parent="1" vertex="1">
          <mxGeometry x="30" y="1280" width="180" height="195" as="geometry" />
        </mxCell>
        <mxCell id="8MDK9gDb8Gs9CdMvES0l-15" value="&lt;div style=&quot;text-align: justify;&quot;&gt;&lt;span style=&quot;background-color: initial;&quot;&gt;[관리 영역]&lt;/span&gt;&lt;/div&gt;&lt;div style=&quot;text-align: justify;&quot;&gt;&lt;span style=&quot;background-color: initial;&quot;&gt;신규 강의 생성하기 C BL 없다&lt;/span&gt;&lt;/div&gt;&lt;div style=&quot;text-align: justify;&quot;&gt;&lt;span style=&quot;background-color: initial;&quot;&gt;강의 전체 조회하기 R BL 있다&lt;/span&gt;&lt;/div&gt;&lt;div style=&quot;text-align: justify;&quot;&gt;&lt;span style=&quot;background-color: initial;&quot;&gt;강의 부분 조회하기 R BL 있다&lt;/span&gt;&lt;/div&gt;&lt;div style=&quot;text-align: justify;&quot;&gt;&lt;span style=&quot;background-color: initial;&quot;&gt;기존 강의 수정하기 U BL 없다&lt;/span&gt;&lt;/div&gt;&lt;div style=&quot;text-align: justify;&quot;&gt;&lt;span style=&quot;background-color: initial;&quot;&gt;기존 강의 삭제하기 D BL 없다&lt;/span&gt;&lt;/div&gt;&lt;div style=&quot;text-align: justify;&quot;&gt;&lt;span style=&quot;background-color: initial;&quot;&gt;&lt;br&gt;&lt;/span&gt;&lt;/div&gt;&lt;div style=&quot;text-align: justify;&quot;&gt;&lt;span style=&quot;background-color: initial;&quot;&gt;[USE]&lt;/span&gt;&lt;/div&gt;&lt;div style=&quot;text-align: justify;&quot;&gt;강의 수강 신청하기 C BL 있다&lt;/div&gt;&lt;div style=&quot;text-align: justify;&quot;&gt;신청 강의 조회하기 R BL 있다&lt;/div&gt;&lt;div style=&quot;text-align: justify;&quot;&gt;신청 강의 수정하기 U BL 있다&lt;/div&gt;&lt;div style=&quot;text-align: justify;&quot;&gt;신청 강의 삭제하기 D BL 있다&lt;/div&gt;" style="rounded=0;whiteSpace=wrap;html=1;align=center;" parent="1" vertex="1">
          <mxGeometry x="240" y="595" width="260" height="205" as="geometry" />
        </mxCell>
        <mxCell id="8MDK9gDb8Gs9CdMvES0l-16" value="&lt;div style=&quot;text-align: justify;&quot;&gt;&lt;span style=&quot;background-color: initial;&quot;&gt;[관리 영역]&lt;/span&gt;&lt;/div&gt;&lt;div style=&quot;text-align: justify;&quot;&gt;&lt;span style=&quot;background-color: initial;&quot;&gt;신규 강의 생성하기 C BL 없다&lt;/span&gt;&lt;/div&gt;&lt;div style=&quot;text-align: justify;&quot;&gt;&lt;span style=&quot;background-color: initial;&quot;&gt;강의 전체 조회하기 R BL 있다&lt;/span&gt;&lt;/div&gt;&lt;div style=&quot;text-align: justify;&quot;&gt;&lt;span style=&quot;background-color: initial;&quot;&gt;강의 부분 조회하기 R BL 있다&lt;/span&gt;&lt;/div&gt;&lt;div style=&quot;text-align: justify;&quot;&gt;&lt;span style=&quot;background-color: initial;&quot;&gt;기존 강의 수정하기 U BL 없다&lt;/span&gt;&lt;/div&gt;&lt;div style=&quot;text-align: justify;&quot;&gt;&lt;span style=&quot;background-color: initial;&quot;&gt;기존 강의 삭제하기 D BL 없다&lt;/span&gt;&lt;/div&gt;&lt;div style=&quot;text-align: justify;&quot;&gt;&lt;span style=&quot;background-color: initial;&quot;&gt;&lt;br&gt;&lt;/span&gt;&lt;/div&gt;&lt;div style=&quot;text-align: justify;&quot;&gt;&lt;span style=&quot;background-color: initial;&quot;&gt;[USE]&lt;/span&gt;&lt;/div&gt;&lt;div style=&quot;text-align: justify;&quot;&gt;강의 수강 신청하기 C BL 없다&lt;/div&gt;&lt;div style=&quot;text-align: justify;&quot;&gt;신청 강의 조회하기 R BL 없다&lt;/div&gt;&lt;div style=&quot;text-align: justify;&quot;&gt;신청 강의 수정하기 U BL 없다&lt;/div&gt;&lt;div style=&quot;text-align: justify;&quot;&gt;신청 강의 삭제하기 D BL 없다&lt;/div&gt;" style="rounded=0;whiteSpace=wrap;html=1;align=center;" parent="1" vertex="1">
          <mxGeometry x="240" y="825" width="260" height="205" as="geometry" />
        </mxCell>
        <mxCell id="8MDK9gDb8Gs9CdMvES0l-17" value="&lt;div style=&quot;text-align: justify;&quot;&gt;&lt;span style=&quot;background-color: initial;&quot;&gt;[관리 영역]&lt;/span&gt;&lt;/div&gt;&lt;div style=&quot;text-align: justify;&quot;&gt;&lt;span style=&quot;background-color: initial;&quot;&gt;신규 강의 생성하기 C BL 없다&lt;/span&gt;&lt;/div&gt;&lt;div style=&quot;text-align: justify;&quot;&gt;&lt;span style=&quot;background-color: initial;&quot;&gt;강의 전체 조회하기 R BL 있다&lt;/span&gt;&lt;/div&gt;&lt;div style=&quot;text-align: justify;&quot;&gt;&lt;span style=&quot;background-color: initial;&quot;&gt;강의 부분 조회하기 R BL 있다&lt;/span&gt;&lt;/div&gt;&lt;div style=&quot;text-align: justify;&quot;&gt;&lt;span style=&quot;background-color: initial;&quot;&gt;기존 강의 수정하기 U BL 없다&lt;/span&gt;&lt;/div&gt;&lt;div style=&quot;text-align: justify;&quot;&gt;&lt;span style=&quot;background-color: initial;&quot;&gt;기존 강의 삭제하기 D BL 없다&lt;/span&gt;&lt;/div&gt;&lt;div style=&quot;text-align: justify;&quot;&gt;&lt;span style=&quot;background-color: initial;&quot;&gt;&lt;br&gt;&lt;/span&gt;&lt;/div&gt;&lt;div style=&quot;text-align: justify;&quot;&gt;&lt;span style=&quot;background-color: initial;&quot;&gt;[USE]&lt;/span&gt;&lt;/div&gt;&lt;div style=&quot;text-align: justify;&quot;&gt;강의 수강 신청하기 C BL 없다&lt;/div&gt;&lt;div style=&quot;text-align: justify;&quot;&gt;신청 강의 조회하기 R BL 없다&lt;/div&gt;&lt;div style=&quot;text-align: justify;&quot;&gt;신청 강의 수정하기 U BL 없다&lt;/div&gt;&lt;div style=&quot;text-align: justify;&quot;&gt;신청 강의 삭제하기 D BL 없다&lt;/div&gt;" style="rounded=0;whiteSpace=wrap;html=1;align=center;" parent="1" vertex="1">
          <mxGeometry x="240" y="1060" width="260" height="195" as="geometry" />
        </mxCell>
        <mxCell id="8MDK9gDb8Gs9CdMvES0l-18" value="&lt;div style=&quot;text-align: justify;&quot;&gt;&lt;span style=&quot;background-color: initial;&quot;&gt;[관리 영역]&lt;/span&gt;&lt;/div&gt;&lt;div style=&quot;text-align: justify;&quot;&gt;&lt;span style=&quot;background-color: initial;&quot;&gt;신규 강의 생성하기 C BL 있다&lt;/span&gt;&lt;/div&gt;&lt;div style=&quot;text-align: justify;&quot;&gt;&lt;span style=&quot;background-color: initial;&quot;&gt;강의 전체 조회하기 R BL 있다&lt;/span&gt;&lt;/div&gt;&lt;div style=&quot;text-align: justify;&quot;&gt;&lt;span style=&quot;background-color: initial;&quot;&gt;강의 부분 조회하기 R BL 있다&lt;/span&gt;&lt;/div&gt;&lt;div style=&quot;text-align: justify;&quot;&gt;&lt;span style=&quot;background-color: initial;&quot;&gt;기존 강의 수정하기 U BL 있다&lt;/span&gt;&lt;/div&gt;&lt;div style=&quot;text-align: justify;&quot;&gt;&lt;span style=&quot;background-color: initial;&quot;&gt;기존 강의 삭제하기 D BL 있다&lt;/span&gt;&lt;/div&gt;&lt;div style=&quot;text-align: justify;&quot;&gt;&lt;span style=&quot;background-color: initial;&quot;&gt;&lt;br&gt;&lt;/span&gt;&lt;/div&gt;&lt;div style=&quot;text-align: justify;&quot;&gt;&lt;span style=&quot;background-color: initial;&quot;&gt;[USE]&lt;/span&gt;&lt;/div&gt;&lt;div style=&quot;text-align: justify;&quot;&gt;강의 수강 신청하기 C BL 없다&lt;/div&gt;&lt;div style=&quot;text-align: justify;&quot;&gt;신청 강의 조회하기 R BL 없다&lt;/div&gt;&lt;div style=&quot;text-align: justify;&quot;&gt;신청 강의 수정하기 U BL 없다&lt;/div&gt;&lt;div style=&quot;text-align: justify;&quot;&gt;신청 강의 삭제하기 D BL 없다&lt;/div&gt;" style="rounded=0;whiteSpace=wrap;html=1;align=center;" parent="1" vertex="1">
          <mxGeometry x="240" y="1280" width="260" height="195" as="geometry" />
        </mxCell>
        <mxCell id="8MDK9gDb8Gs9CdMvES0l-19" value="회원 서비스" style="rounded=0;whiteSpace=wrap;html=1;" parent="1" vertex="1">
          <mxGeometry x="530" y="530" width="260" height="50" as="geometry" />
        </mxCell>
        <mxCell id="8MDK9gDb8Gs9CdMvES0l-20" value="&lt;div style=&quot;text-align: justify;&quot;&gt;&lt;span style=&quot;background-color: initial;&quot;&gt;[관리 영역]&lt;/span&gt;&lt;/div&gt;&lt;div style=&quot;text-align: justify;&quot;&gt;회원 생성하기 C BL 없다&lt;span style=&quot;background-color: initial;&quot;&gt;&lt;br&gt;&lt;/span&gt;&lt;/div&gt;&lt;div style=&quot;text-align: justify;&quot;&gt;&lt;span style=&quot;background-color: initial;&quot;&gt;회원 전체 조회하기 R BL 없다&lt;/span&gt;&lt;/div&gt;&lt;div style=&quot;text-align: justify;&quot;&gt;&lt;span style=&quot;background-color: initial;&quot;&gt;회원 부분 조회하기 R BL 없다&lt;/span&gt;&lt;/div&gt;&lt;div style=&quot;text-align: justify;&quot;&gt;&lt;span style=&quot;background-color: initial;&quot;&gt;회원 정보 수정하기 U BL 없다&lt;/span&gt;&lt;/div&gt;&lt;div style=&quot;text-align: justify;&quot;&gt;&lt;span style=&quot;background-color: initial;&quot;&gt;회원 삭제하기 D BL 없다&lt;/span&gt;&lt;/div&gt;&lt;div style=&quot;text-align: justify; border-color: var(--border-color);&quot;&gt;&lt;span style=&quot;border-color: var(--border-color); background-color: initial;&quot;&gt;&lt;br style=&quot;border-color: var(--border-color);&quot;&gt;&lt;/span&gt;&lt;/div&gt;&lt;div style=&quot;text-align: justify; border-color: var(--border-color);&quot;&gt;&lt;span style=&quot;border-color: var(--border-color); background-color: initial;&quot;&gt;[USE]&lt;/span&gt;&lt;/div&gt;&lt;div style=&quot;text-align: justify; border-color: var(--border-color);&quot;&gt;&lt;span style=&quot;border-color: var(--border-color); background-color: initial;&quot;&gt;회원 가입하기 C&amp;nbsp; BL 없다&lt;br&gt;&lt;/span&gt;&lt;/div&gt;&lt;div style=&quot;text-align: justify; border-color: var(--border-color);&quot;&gt;로그인하기 BL&lt;span style=&quot;&quot;&gt;&lt;span style=&quot;&quot;&gt;&amp;nbsp;&lt;/span&gt;&lt;/span&gt;있다&lt;/div&gt;&lt;div style=&quot;text-align: justify; border-color: var(--border-color);&quot;&gt;로그아웃하기 BL 있다&lt;/div&gt;&lt;div style=&quot;text-align: justify; border-color: var(--border-color);&quot;&gt;나의 정보 확인하기 R BL 있다&lt;/div&gt;&lt;div style=&quot;text-align: justify; border-color: var(--border-color);&quot;&gt;나의 정보 수정하기 U BL 있다&lt;/div&gt;&lt;div style=&quot;text-align: justify; border-color: var(--border-color);&quot;&gt;회원 탈퇴하기 D BL 있다&lt;/div&gt;" style="rounded=0;whiteSpace=wrap;html=1;" parent="1" vertex="1">
          <mxGeometry x="530" y="595" width="260" height="205" as="geometry" />
        </mxCell>
        <mxCell id="8MDK9gDb8Gs9CdMvES0l-21" value="&lt;div style=&quot;text-align: justify;&quot;&gt;&lt;span style=&quot;background-color: initial;&quot;&gt;[관리 영역]&lt;/span&gt;&lt;/div&gt;&lt;div style=&quot;text-align: justify;&quot;&gt;&lt;span style=&quot;background-color: initial;&quot;&gt;회원 생성하기 C BL 없다&lt;/span&gt;&lt;/div&gt;&lt;div style=&quot;text-align: justify;&quot;&gt;&lt;span style=&quot;background-color: initial;&quot;&gt;회원 전체 조회하기 R BL 없다&lt;/span&gt;&lt;/div&gt;&lt;div style=&quot;text-align: justify;&quot;&gt;&lt;span style=&quot;background-color: initial;&quot;&gt;회원 부분 조회하기 R BL 없다&lt;/span&gt;&lt;/div&gt;&lt;div style=&quot;text-align: justify;&quot;&gt;&lt;span style=&quot;background-color: initial;&quot;&gt;회원 정보 수정하기 U BL 없다&lt;/span&gt;&lt;/div&gt;&lt;div style=&quot;text-align: justify;&quot;&gt;&lt;span style=&quot;background-color: initial;&quot;&gt;회원 삭제하기 D BL 없다&lt;/span&gt;&lt;/div&gt;&lt;div style=&quot;text-align: justify; border-color: var(--border-color);&quot;&gt;&lt;span style=&quot;border-color: var(--border-color); background-color: initial;&quot;&gt;&lt;br style=&quot;border-color: var(--border-color);&quot;&gt;&lt;/span&gt;&lt;/div&gt;&lt;div style=&quot;text-align: justify; border-color: var(--border-color);&quot;&gt;&lt;span style=&quot;border-color: var(--border-color); background-color: initial;&quot;&gt;[USE]&lt;/span&gt;&lt;/div&gt;&lt;div style=&quot;text-align: justify; border-color: var(--border-color);&quot;&gt;&lt;span style=&quot;border-color: var(--border-color); background-color: initial;&quot;&gt;회원 가입하기 C&amp;nbsp; BL 없다&lt;br&gt;&lt;/span&gt;&lt;/div&gt;&lt;div style=&quot;text-align: justify; border-color: var(--border-color);&quot;&gt;로그인하기 BL&lt;/div&gt;&lt;div style=&quot;text-align: justify; border-color: var(--border-color);&quot;&gt;로그아웃하기 BL&lt;/div&gt;&lt;div style=&quot;text-align: justify; border-color: var(--border-color);&quot;&gt;나의 정보 확인하기 R BL&lt;/div&gt;&lt;div style=&quot;text-align: justify; border-color: var(--border-color);&quot;&gt;나의 정보 수정하기 U BL&lt;/div&gt;&lt;div style=&quot;text-align: justify; border-color: var(--border-color);&quot;&gt;회원 탈퇴하기 D&amp;nbsp; BL&lt;/div&gt;" style="rounded=0;whiteSpace=wrap;html=1;" parent="1" vertex="1">
          <mxGeometry x="530" y="820" width="260" height="210" as="geometry" />
        </mxCell>
        <mxCell id="8MDK9gDb8Gs9CdMvES0l-25" value="" style="rounded=0;whiteSpace=wrap;html=1;" parent="1" vertex="1">
          <mxGeometry x="29" y="1505" width="770" height="50" as="geometry" />
        </mxCell>
        <mxCell id="8MDK9gDb8Gs9CdMvES0l-24" value="&lt;div style=&quot;text-align: justify;&quot;&gt;&lt;span style=&quot;background-color: initial;&quot;&gt;저장 단위별 정리(Entity) - Create 에 필요한 속성들 정리&lt;/span&gt;&lt;/div&gt;" style="text;whiteSpace=wrap;html=1;" parent="1" vertex="1">
          <mxGeometry x="40" y="1515" width="420" height="40" as="geometry" />
        </mxCell>
        <mxCell id="8MDK9gDb8Gs9CdMvES0l-27" value="강의 서비스" style="rounded=0;whiteSpace=wrap;html=1;" parent="1" vertex="1">
          <mxGeometry x="31" y="1580" width="250" height="50" as="geometry" />
        </mxCell>
        <mxCell id="8MDK9gDb8Gs9CdMvES0l-28" value="회원 서비스" style="rounded=0;whiteSpace=wrap;html=1;" parent="1" vertex="1">
          <mxGeometry x="29" y="1940" width="250" height="50" as="geometry" />
        </mxCell>
        <mxCell id="8MDK9gDb8Gs9CdMvES0l-29" value="&lt;div style=&quot;text-align: justify;&quot;&gt;&lt;span style=&quot;background-color: initial;&quot;&gt;[관리 영역]&lt;/span&gt;&lt;/div&gt;&lt;div style=&quot;text-align: justify;&quot;&gt;&lt;span style=&quot;background-color: initial;&quot;&gt;신규 강의 생성하기 C BL&lt;/span&gt;&lt;/div&gt;&lt;div style=&quot;text-align: justify;&quot;&gt;&lt;span style=&quot;background-color: initial;&quot;&gt;강의 전체 조회하기 R BL&lt;/span&gt;&lt;/div&gt;&lt;div style=&quot;text-align: justify;&quot;&gt;&lt;span style=&quot;background-color: initial;&quot;&gt;강의 부분 조회하기 R BL&lt;/span&gt;&lt;/div&gt;&lt;div style=&quot;text-align: justify;&quot;&gt;&lt;span style=&quot;background-color: initial;&quot;&gt;기존 강의 수정하기 U BL&lt;/span&gt;&lt;/div&gt;&lt;div style=&quot;text-align: justify;&quot;&gt;&lt;span style=&quot;background-color: initial;&quot;&gt;기존 강의 삭제하기 D BL&lt;/span&gt;&lt;/div&gt;&lt;div style=&quot;text-align: justify;&quot;&gt;&lt;span style=&quot;background-color: initial;&quot;&gt;&lt;br&gt;&lt;/span&gt;&lt;/div&gt;&lt;div style=&quot;text-align: justify;&quot;&gt;&lt;span style=&quot;background-color: initial;&quot;&gt;[USE]&lt;/span&gt;&lt;/div&gt;&lt;div style=&quot;text-align: justify;&quot;&gt;강의 수강 신청하기 C BL&lt;/div&gt;&lt;div style=&quot;text-align: justify;&quot;&gt;신청 강의 조회하기 R BL&lt;/div&gt;&lt;div style=&quot;text-align: justify;&quot;&gt;신청 강의 수정하기 U BL&lt;/div&gt;&lt;div style=&quot;text-align: justify;&quot;&gt;신청 강의 삭제하기 D BL&lt;/div&gt;" style="rounded=0;whiteSpace=wrap;html=1;align=center;" parent="1" vertex="1">
          <mxGeometry x="30" y="1650" width="250" height="260" as="geometry" />
        </mxCell>
        <mxCell id="8MDK9gDb8Gs9CdMvES0l-30" value="&lt;div style=&quot;text-align: justify;&quot;&gt;&lt;span style=&quot;background-color: initial;&quot;&gt;[관리 영역]&lt;/span&gt;&lt;/div&gt;&lt;div style=&quot;text-align: justify;&quot;&gt;&lt;span style=&quot;background-color: initial;&quot;&gt;회원 가입하기 C&amp;nbsp; BL&lt;/span&gt;&lt;/div&gt;&lt;div style=&quot;text-align: justify;&quot;&gt;&lt;span style=&quot;background-color: initial;&quot;&gt;회원 전체 조회하기 R BL&lt;/span&gt;&lt;/div&gt;&lt;div style=&quot;text-align: justify;&quot;&gt;&lt;span style=&quot;background-color: initial;&quot;&gt;회원 부분 조회하기 R BL&lt;/span&gt;&lt;/div&gt;&lt;div style=&quot;text-align: justify;&quot;&gt;&lt;span style=&quot;background-color: initial;&quot;&gt;회원 정보 수정하기 U BL&lt;/span&gt;&lt;/div&gt;&lt;div style=&quot;text-align: justify;&quot;&gt;&lt;span style=&quot;background-color: initial;&quot;&gt;회원 삭제하기 D BL&lt;/span&gt;&lt;/div&gt;&lt;div style=&quot;text-align: justify; border-color: var(--border-color);&quot;&gt;&lt;span style=&quot;border-color: var(--border-color); background-color: initial;&quot;&gt;&lt;br style=&quot;border-color: var(--border-color);&quot;&gt;&lt;/span&gt;&lt;/div&gt;&lt;div style=&quot;text-align: justify; border-color: var(--border-color);&quot;&gt;&lt;span style=&quot;border-color: var(--border-color); background-color: initial;&quot;&gt;[USE]&lt;/span&gt;&lt;/div&gt;&lt;div style=&quot;text-align: justify; border-color: var(--border-color);&quot;&gt;&lt;span style=&quot;border-color: var(--border-color); background-color: initial;&quot;&gt;회원 가입하기 C&amp;nbsp; BL&lt;br&gt;&lt;/span&gt;&lt;/div&gt;&lt;div style=&quot;text-align: justify; border-color: var(--border-color);&quot;&gt;로그인하기 BL&lt;/div&gt;&lt;div style=&quot;text-align: justify; border-color: var(--border-color);&quot;&gt;로그아웃하기 BL&lt;/div&gt;&lt;div style=&quot;text-align: justify; border-color: var(--border-color);&quot;&gt;나의 정보 확인하기 R BL&lt;/div&gt;&lt;div style=&quot;text-align: justify; border-color: var(--border-color);&quot;&gt;나의 정보 수정하기 U BL&lt;/div&gt;&lt;div style=&quot;text-align: justify; border-color: var(--border-color);&quot;&gt;회원 탈퇴하기 D BL&lt;/div&gt;" style="rounded=0;whiteSpace=wrap;html=1;" parent="1" vertex="1">
          <mxGeometry x="29" y="2010" width="250" height="260" as="geometry" />
        </mxCell>
        <mxCell id="8MDK9gDb8Gs9CdMvES0l-31" value="강의 ENTITY" style="rounded=0;whiteSpace=wrap;html=1;" parent="1" vertex="1">
          <mxGeometry x="320" y="1580" width="250" height="50" as="geometry" />
        </mxCell>
        <mxCell id="8MDK9gDb8Gs9CdMvES0l-32" value="&lt;div style=&quot;text-align: justify;&quot;&gt;[Attribute]&lt;/div&gt;&lt;div style=&quot;text-align: justify;&quot;&gt;강의 구별 번호(PK)&lt;/div&gt;&lt;div style=&quot;text-align: justify;&quot;&gt;강의명&lt;/div&gt;&lt;div style=&quot;text-align: justify;&quot;&gt;강사명&lt;/div&gt;&lt;div style=&quot;text-align: justify;&quot;&gt;강의장명&lt;/div&gt;&lt;div style=&quot;text-align: justify;&quot;&gt;강의시간&lt;/div&gt;&lt;div style=&quot;text-align: justify;&quot;&gt;상세정보&lt;/div&gt;" style="rounded=0;whiteSpace=wrap;html=1;align=center;" parent="1" vertex="1">
          <mxGeometry x="320" y="1650" width="250" height="120" as="geometry" />
        </mxCell>
        <mxCell id="8MDK9gDb8Gs9CdMvES0l-33" value="" style="endArrow=classic;html=1;rounded=0;" parent="1" edge="1">
          <mxGeometry width="50" height="50" relative="1" as="geometry">
            <mxPoint x="230" y="1715" as="sourcePoint" />
            <mxPoint x="320" y="1715" as="targetPoint" />
          </mxGeometry>
        </mxCell>
        <mxCell id="8MDK9gDb8Gs9CdMvES0l-34" value="강의 Table" style="shape=table;startSize=30;container=1;collapsible=1;childLayout=tableLayout;fixedRows=1;rowLines=0;fontStyle=1;align=center;resizeLast=1;html=1;" parent="1" vertex="1">
          <mxGeometry x="600" y="1650" width="180" height="210" as="geometry" />
        </mxCell>
        <mxCell id="8MDK9gDb8Gs9CdMvES0l-35" value="" style="shape=tableRow;horizontal=0;startSize=0;swimlaneHead=0;swimlaneBody=0;fillColor=none;collapsible=0;dropTarget=0;points=[[0,0.5],[1,0.5]];portConstraint=eastwest;top=0;left=0;right=0;bottom=1;" parent="8MDK9gDb8Gs9CdMvES0l-34" vertex="1">
          <mxGeometry y="30" width="180" height="30" as="geometry" />
        </mxCell>
        <mxCell id="8MDK9gDb8Gs9CdMvES0l-36" value="PK" style="shape=partialRectangle;connectable=0;fillColor=none;top=0;left=0;bottom=0;right=0;fontStyle=1;overflow=hidden;whiteSpace=wrap;html=1;" parent="8MDK9gDb8Gs9CdMvES0l-35" vertex="1">
          <mxGeometry width="30" height="30" as="geometry">
            <mxRectangle width="30" height="30" as="alternateBounds" />
          </mxGeometry>
        </mxCell>
        <mxCell id="8MDK9gDb8Gs9CdMvES0l-37" value="강의구별번호" style="shape=partialRectangle;connectable=0;fillColor=none;top=0;left=0;bottom=0;right=0;align=left;spacingLeft=6;fontStyle=5;overflow=hidden;whiteSpace=wrap;html=1;" parent="8MDK9gDb8Gs9CdMvES0l-35" vertex="1">
          <mxGeometry x="30" width="150" height="30" as="geometry">
            <mxRectangle width="150" height="30" as="alternateBounds" />
          </mxGeometry>
        </mxCell>
        <mxCell id="8MDK9gDb8Gs9CdMvES0l-38" value="" style="shape=tableRow;horizontal=0;startSize=0;swimlaneHead=0;swimlaneBody=0;fillColor=none;collapsible=0;dropTarget=0;points=[[0,0.5],[1,0.5]];portConstraint=eastwest;top=0;left=0;right=0;bottom=0;" parent="8MDK9gDb8Gs9CdMvES0l-34" vertex="1">
          <mxGeometry y="60" width="180" height="30" as="geometry" />
        </mxCell>
        <mxCell id="8MDK9gDb8Gs9CdMvES0l-39" value="" style="shape=partialRectangle;connectable=0;fillColor=none;top=0;left=0;bottom=0;right=0;editable=1;overflow=hidden;whiteSpace=wrap;html=1;" parent="8MDK9gDb8Gs9CdMvES0l-38" vertex="1">
          <mxGeometry width="30" height="30" as="geometry">
            <mxRectangle width="30" height="30" as="alternateBounds" />
          </mxGeometry>
        </mxCell>
        <mxCell id="8MDK9gDb8Gs9CdMvES0l-40" value="강의명" style="shape=partialRectangle;connectable=0;fillColor=none;top=0;left=0;bottom=0;right=0;align=left;spacingLeft=6;overflow=hidden;whiteSpace=wrap;html=1;" parent="8MDK9gDb8Gs9CdMvES0l-38" vertex="1">
          <mxGeometry x="30" width="150" height="30" as="geometry">
            <mxRectangle width="150" height="30" as="alternateBounds" />
          </mxGeometry>
        </mxCell>
        <mxCell id="8MDK9gDb8Gs9CdMvES0l-41" value="" style="shape=tableRow;horizontal=0;startSize=0;swimlaneHead=0;swimlaneBody=0;fillColor=none;collapsible=0;dropTarget=0;points=[[0,0.5],[1,0.5]];portConstraint=eastwest;top=0;left=0;right=0;bottom=0;" parent="8MDK9gDb8Gs9CdMvES0l-34" vertex="1">
          <mxGeometry y="90" width="180" height="30" as="geometry" />
        </mxCell>
        <mxCell id="8MDK9gDb8Gs9CdMvES0l-42" value="" style="shape=partialRectangle;connectable=0;fillColor=none;top=0;left=0;bottom=0;right=0;editable=1;overflow=hidden;whiteSpace=wrap;html=1;" parent="8MDK9gDb8Gs9CdMvES0l-41" vertex="1">
          <mxGeometry width="30" height="30" as="geometry">
            <mxRectangle width="30" height="30" as="alternateBounds" />
          </mxGeometry>
        </mxCell>
        <mxCell id="8MDK9gDb8Gs9CdMvES0l-43" value="강사명" style="shape=partialRectangle;connectable=0;fillColor=none;top=0;left=0;bottom=0;right=0;align=left;spacingLeft=6;overflow=hidden;whiteSpace=wrap;html=1;" parent="8MDK9gDb8Gs9CdMvES0l-41" vertex="1">
          <mxGeometry x="30" width="150" height="30" as="geometry">
            <mxRectangle width="150" height="30" as="alternateBounds" />
          </mxGeometry>
        </mxCell>
        <mxCell id="8MDK9gDb8Gs9CdMvES0l-44" value="" style="shape=tableRow;horizontal=0;startSize=0;swimlaneHead=0;swimlaneBody=0;fillColor=none;collapsible=0;dropTarget=0;points=[[0,0.5],[1,0.5]];portConstraint=eastwest;top=0;left=0;right=0;bottom=0;" parent="8MDK9gDb8Gs9CdMvES0l-34" vertex="1">
          <mxGeometry y="120" width="180" height="30" as="geometry" />
        </mxCell>
        <mxCell id="8MDK9gDb8Gs9CdMvES0l-45" value="" style="shape=partialRectangle;connectable=0;fillColor=none;top=0;left=0;bottom=0;right=0;editable=1;overflow=hidden;whiteSpace=wrap;html=1;" parent="8MDK9gDb8Gs9CdMvES0l-44" vertex="1">
          <mxGeometry width="30" height="30" as="geometry">
            <mxRectangle width="30" height="30" as="alternateBounds" />
          </mxGeometry>
        </mxCell>
        <mxCell id="8MDK9gDb8Gs9CdMvES0l-46" value="강의장명" style="shape=partialRectangle;connectable=0;fillColor=none;top=0;left=0;bottom=0;right=0;align=left;spacingLeft=6;overflow=hidden;whiteSpace=wrap;html=1;" parent="8MDK9gDb8Gs9CdMvES0l-44" vertex="1">
          <mxGeometry x="30" width="150" height="30" as="geometry">
            <mxRectangle width="150" height="30" as="alternateBounds" />
          </mxGeometry>
        </mxCell>
        <mxCell id="8MDK9gDb8Gs9CdMvES0l-47" value="" style="shape=tableRow;horizontal=0;startSize=0;swimlaneHead=0;swimlaneBody=0;fillColor=none;collapsible=0;dropTarget=0;points=[[0,0.5],[1,0.5]];portConstraint=eastwest;top=0;left=0;right=0;bottom=0;" parent="8MDK9gDb8Gs9CdMvES0l-34" vertex="1">
          <mxGeometry y="150" width="180" height="30" as="geometry" />
        </mxCell>
        <mxCell id="8MDK9gDb8Gs9CdMvES0l-48" value="" style="shape=partialRectangle;connectable=0;fillColor=none;top=0;left=0;bottom=0;right=0;editable=1;overflow=hidden;whiteSpace=wrap;html=1;" parent="8MDK9gDb8Gs9CdMvES0l-47" vertex="1">
          <mxGeometry width="30" height="30" as="geometry">
            <mxRectangle width="30" height="30" as="alternateBounds" />
          </mxGeometry>
        </mxCell>
        <mxCell id="8MDK9gDb8Gs9CdMvES0l-49" value="강의시간" style="shape=partialRectangle;connectable=0;fillColor=none;top=0;left=0;bottom=0;right=0;align=left;spacingLeft=6;overflow=hidden;whiteSpace=wrap;html=1;" parent="8MDK9gDb8Gs9CdMvES0l-47" vertex="1">
          <mxGeometry x="30" width="150" height="30" as="geometry">
            <mxRectangle width="150" height="30" as="alternateBounds" />
          </mxGeometry>
        </mxCell>
        <mxCell id="8MDK9gDb8Gs9CdMvES0l-50" value="" style="shape=tableRow;horizontal=0;startSize=0;swimlaneHead=0;swimlaneBody=0;fillColor=none;collapsible=0;dropTarget=0;points=[[0,0.5],[1,0.5]];portConstraint=eastwest;top=0;left=0;right=0;bottom=0;" parent="8MDK9gDb8Gs9CdMvES0l-34" vertex="1">
          <mxGeometry y="180" width="180" height="30" as="geometry" />
        </mxCell>
        <mxCell id="8MDK9gDb8Gs9CdMvES0l-51" value="" style="shape=partialRectangle;connectable=0;fillColor=none;top=0;left=0;bottom=0;right=0;editable=1;overflow=hidden;whiteSpace=wrap;html=1;" parent="8MDK9gDb8Gs9CdMvES0l-50" vertex="1">
          <mxGeometry width="30" height="30" as="geometry">
            <mxRectangle width="30" height="30" as="alternateBounds" />
          </mxGeometry>
        </mxCell>
        <mxCell id="8MDK9gDb8Gs9CdMvES0l-52" value="상세정보" style="shape=partialRectangle;connectable=0;fillColor=none;top=0;left=0;bottom=0;right=0;align=left;spacingLeft=6;overflow=hidden;whiteSpace=wrap;html=1;" parent="8MDK9gDb8Gs9CdMvES0l-50" vertex="1">
          <mxGeometry x="30" width="150" height="30" as="geometry">
            <mxRectangle width="150" height="30" as="alternateBounds" />
          </mxGeometry>
        </mxCell>
        <mxCell id="8MDK9gDb8Gs9CdMvES0l-53" value="회원 ENTITY" style="rounded=0;whiteSpace=wrap;html=1;" parent="1" vertex="1">
          <mxGeometry x="320" y="1940" width="250" height="50" as="geometry" />
        </mxCell>
        <mxCell id="8MDK9gDb8Gs9CdMvES0l-54" value="&lt;div style=&quot;text-align: justify;&quot;&gt;[Attribute]&lt;/div&gt;&lt;div style=&quot;text-align: justify;&quot;&gt;회원 ID(PK)&lt;/div&gt;&lt;div style=&quot;text-align: justify;&quot;&gt;회원 PW&lt;/div&gt;&lt;div style=&quot;text-align: justify;&quot;&gt;회원 이름&lt;/div&gt;&lt;div style=&quot;text-align: justify;&quot;&gt;회원 연락처&lt;/div&gt;&lt;div style=&quot;text-align: justify;&quot;&gt;회원 주소&lt;/div&gt;" style="rounded=0;whiteSpace=wrap;html=1;align=center;" parent="1" vertex="1">
          <mxGeometry x="320" y="2010" width="250" height="120" as="geometry" />
        </mxCell>
        <mxCell id="8MDK9gDb8Gs9CdMvES0l-55" value="회원 Table" style="shape=table;startSize=30;container=1;collapsible=1;childLayout=tableLayout;fixedRows=1;rowLines=0;fontStyle=1;align=center;resizeLast=1;html=1;" parent="1" vertex="1">
          <mxGeometry x="600" y="2010" width="180" height="180" as="geometry" />
        </mxCell>
        <mxCell id="8MDK9gDb8Gs9CdMvES0l-56" value="" style="shape=tableRow;horizontal=0;startSize=0;swimlaneHead=0;swimlaneBody=0;fillColor=none;collapsible=0;dropTarget=0;points=[[0,0.5],[1,0.5]];portConstraint=eastwest;top=0;left=0;right=0;bottom=1;" parent="8MDK9gDb8Gs9CdMvES0l-55" vertex="1">
          <mxGeometry y="30" width="180" height="30" as="geometry" />
        </mxCell>
        <mxCell id="8MDK9gDb8Gs9CdMvES0l-57" value="PK" style="shape=partialRectangle;connectable=0;fillColor=none;top=0;left=0;bottom=0;right=0;fontStyle=1;overflow=hidden;whiteSpace=wrap;html=1;" parent="8MDK9gDb8Gs9CdMvES0l-56" vertex="1">
          <mxGeometry width="30" height="30" as="geometry">
            <mxRectangle width="30" height="30" as="alternateBounds" />
          </mxGeometry>
        </mxCell>
        <mxCell id="8MDK9gDb8Gs9CdMvES0l-58" value="회원ID" style="shape=partialRectangle;connectable=0;fillColor=none;top=0;left=0;bottom=0;right=0;align=left;spacingLeft=6;fontStyle=5;overflow=hidden;whiteSpace=wrap;html=1;" parent="8MDK9gDb8Gs9CdMvES0l-56" vertex="1">
          <mxGeometry x="30" width="150" height="30" as="geometry">
            <mxRectangle width="150" height="30" as="alternateBounds" />
          </mxGeometry>
        </mxCell>
        <mxCell id="8MDK9gDb8Gs9CdMvES0l-59" value="" style="shape=tableRow;horizontal=0;startSize=0;swimlaneHead=0;swimlaneBody=0;fillColor=none;collapsible=0;dropTarget=0;points=[[0,0.5],[1,0.5]];portConstraint=eastwest;top=0;left=0;right=0;bottom=0;" parent="8MDK9gDb8Gs9CdMvES0l-55" vertex="1">
          <mxGeometry y="60" width="180" height="30" as="geometry" />
        </mxCell>
        <mxCell id="8MDK9gDb8Gs9CdMvES0l-60" value="" style="shape=partialRectangle;connectable=0;fillColor=none;top=0;left=0;bottom=0;right=0;editable=1;overflow=hidden;whiteSpace=wrap;html=1;" parent="8MDK9gDb8Gs9CdMvES0l-59" vertex="1">
          <mxGeometry width="30" height="30" as="geometry">
            <mxRectangle width="30" height="30" as="alternateBounds" />
          </mxGeometry>
        </mxCell>
        <mxCell id="8MDK9gDb8Gs9CdMvES0l-61" value="회원PW" style="shape=partialRectangle;connectable=0;fillColor=none;top=0;left=0;bottom=0;right=0;align=left;spacingLeft=6;overflow=hidden;whiteSpace=wrap;html=1;" parent="8MDK9gDb8Gs9CdMvES0l-59" vertex="1">
          <mxGeometry x="30" width="150" height="30" as="geometry">
            <mxRectangle width="150" height="30" as="alternateBounds" />
          </mxGeometry>
        </mxCell>
        <mxCell id="8MDK9gDb8Gs9CdMvES0l-62" value="" style="shape=tableRow;horizontal=0;startSize=0;swimlaneHead=0;swimlaneBody=0;fillColor=none;collapsible=0;dropTarget=0;points=[[0,0.5],[1,0.5]];portConstraint=eastwest;top=0;left=0;right=0;bottom=0;" parent="8MDK9gDb8Gs9CdMvES0l-55" vertex="1">
          <mxGeometry y="90" width="180" height="30" as="geometry" />
        </mxCell>
        <mxCell id="8MDK9gDb8Gs9CdMvES0l-63" value="" style="shape=partialRectangle;connectable=0;fillColor=none;top=0;left=0;bottom=0;right=0;editable=1;overflow=hidden;whiteSpace=wrap;html=1;" parent="8MDK9gDb8Gs9CdMvES0l-62" vertex="1">
          <mxGeometry width="30" height="30" as="geometry">
            <mxRectangle width="30" height="30" as="alternateBounds" />
          </mxGeometry>
        </mxCell>
        <mxCell id="8MDK9gDb8Gs9CdMvES0l-64" value="회원이름" style="shape=partialRectangle;connectable=0;fillColor=none;top=0;left=0;bottom=0;right=0;align=left;spacingLeft=6;overflow=hidden;whiteSpace=wrap;html=1;" parent="8MDK9gDb8Gs9CdMvES0l-62" vertex="1">
          <mxGeometry x="30" width="150" height="30" as="geometry">
            <mxRectangle width="150" height="30" as="alternateBounds" />
          </mxGeometry>
        </mxCell>
        <mxCell id="8MDK9gDb8Gs9CdMvES0l-65" value="" style="shape=tableRow;horizontal=0;startSize=0;swimlaneHead=0;swimlaneBody=0;fillColor=none;collapsible=0;dropTarget=0;points=[[0,0.5],[1,0.5]];portConstraint=eastwest;top=0;left=0;right=0;bottom=0;" parent="8MDK9gDb8Gs9CdMvES0l-55" vertex="1">
          <mxGeometry y="120" width="180" height="30" as="geometry" />
        </mxCell>
        <mxCell id="8MDK9gDb8Gs9CdMvES0l-66" value="" style="shape=partialRectangle;connectable=0;fillColor=none;top=0;left=0;bottom=0;right=0;editable=1;overflow=hidden;whiteSpace=wrap;html=1;" parent="8MDK9gDb8Gs9CdMvES0l-65" vertex="1">
          <mxGeometry width="30" height="30" as="geometry">
            <mxRectangle width="30" height="30" as="alternateBounds" />
          </mxGeometry>
        </mxCell>
        <mxCell id="8MDK9gDb8Gs9CdMvES0l-67" value="회원 연락처" style="shape=partialRectangle;connectable=0;fillColor=none;top=0;left=0;bottom=0;right=0;align=left;spacingLeft=6;overflow=hidden;whiteSpace=wrap;html=1;" parent="8MDK9gDb8Gs9CdMvES0l-65" vertex="1">
          <mxGeometry x="30" width="150" height="30" as="geometry">
            <mxRectangle width="150" height="30" as="alternateBounds" />
          </mxGeometry>
        </mxCell>
        <mxCell id="8MDK9gDb8Gs9CdMvES0l-68" value="" style="shape=tableRow;horizontal=0;startSize=0;swimlaneHead=0;swimlaneBody=0;fillColor=none;collapsible=0;dropTarget=0;points=[[0,0.5],[1,0.5]];portConstraint=eastwest;top=0;left=0;right=0;bottom=0;" parent="8MDK9gDb8Gs9CdMvES0l-55" vertex="1">
          <mxGeometry y="150" width="180" height="30" as="geometry" />
        </mxCell>
        <mxCell id="8MDK9gDb8Gs9CdMvES0l-69" value="" style="shape=partialRectangle;connectable=0;fillColor=none;top=0;left=0;bottom=0;right=0;editable=1;overflow=hidden;whiteSpace=wrap;html=1;" parent="8MDK9gDb8Gs9CdMvES0l-68" vertex="1">
          <mxGeometry width="30" height="30" as="geometry">
            <mxRectangle width="30" height="30" as="alternateBounds" />
          </mxGeometry>
        </mxCell>
        <mxCell id="8MDK9gDb8Gs9CdMvES0l-70" value="회원 주소" style="shape=partialRectangle;connectable=0;fillColor=none;top=0;left=0;bottom=0;right=0;align=left;spacingLeft=6;overflow=hidden;whiteSpace=wrap;html=1;" parent="8MDK9gDb8Gs9CdMvES0l-68" vertex="1">
          <mxGeometry x="30" width="150" height="30" as="geometry">
            <mxRectangle width="150" height="30" as="alternateBounds" />
          </mxGeometry>
        </mxCell>
        <mxCell id="8MDK9gDb8Gs9CdMvES0l-72" value="" style="endArrow=classic;html=1;rounded=0;exitX=0.724;exitY=0.192;exitDx=0;exitDy=0;exitPerimeter=0;" parent="1" source="8MDK9gDb8Gs9CdMvES0l-30" edge="1">
          <mxGeometry width="50" height="50" relative="1" as="geometry">
            <mxPoint x="230" y="2060" as="sourcePoint" />
            <mxPoint x="320" y="2060" as="targetPoint" />
          </mxGeometry>
        </mxCell>
      </root>
    </mxGraphModel>
  </diagram>
  <diagram id="rpQo3tD8K_9jX4__vnvG" name="ERD">
    <mxGraphModel dx="880" dy="-735" grid="1" gridSize="10" guides="1" tooltips="1" connect="1" arrows="1" fold="1" page="1" pageScale="1" pageWidth="827" pageHeight="1169" math="0" shadow="0">
      <root>
        <mxCell id="0" />
        <mxCell id="1" parent="0" />
        <mxCell id="BFY_7eOT1ol8YLlgnoYR-1" value="" style="rounded=0;whiteSpace=wrap;html=1;" parent="1" vertex="1">
          <mxGeometry x="29" y="1200" width="1331" height="50" as="geometry" />
        </mxCell>
        <mxCell id="BFY_7eOT1ol8YLlgnoYR-2" value="&lt;div style=&quot;text-align: justify;&quot;&gt;&lt;span style=&quot;background-color: initial;&quot;&gt;저장 단위별 정리(Entity) - Create 에 필요한 속성들 정리&lt;/span&gt;&lt;/div&gt;" style="text;whiteSpace=wrap;html=1;" parent="1" vertex="1">
          <mxGeometry x="40" y="1210" width="420" height="40" as="geometry" />
        </mxCell>
        <mxCell id="BFY_7eOT1ol8YLlgnoYR-3" value="강의 서비스" style="rounded=0;whiteSpace=wrap;html=1;" parent="1" vertex="1">
          <mxGeometry x="31" y="1275" width="250" height="50" as="geometry" />
        </mxCell>
        <mxCell id="BFY_7eOT1ol8YLlgnoYR-4" value="회원 서비스" style="rounded=0;whiteSpace=wrap;html=1;" parent="1" vertex="1">
          <mxGeometry x="29" y="1635" width="250" height="50" as="geometry" />
        </mxCell>
        <mxCell id="BFY_7eOT1ol8YLlgnoYR-5" value="&lt;div style=&quot;text-align: justify;&quot;&gt;&lt;span style=&quot;background-color: initial;&quot;&gt;[관리 영역]&lt;/span&gt;&lt;/div&gt;&lt;div style=&quot;text-align: justify;&quot;&gt;&lt;span style=&quot;background-color: initial;&quot;&gt;신규 강의 생성하기 C BL&lt;/span&gt;&lt;/div&gt;&lt;div style=&quot;text-align: justify;&quot;&gt;&lt;span style=&quot;background-color: initial;&quot;&gt;강의 전체 조회하기 R BL&lt;/span&gt;&lt;/div&gt;&lt;div style=&quot;text-align: justify;&quot;&gt;&lt;span style=&quot;background-color: initial;&quot;&gt;강의 부분 조회하기 R BL&lt;/span&gt;&lt;/div&gt;&lt;div style=&quot;text-align: justify;&quot;&gt;&lt;span style=&quot;background-color: initial;&quot;&gt;기존 강의 수정하기 U BL&lt;/span&gt;&lt;/div&gt;&lt;div style=&quot;text-align: justify;&quot;&gt;&lt;span style=&quot;background-color: initial;&quot;&gt;기존 강의 삭제하기 D BL&lt;/span&gt;&lt;/div&gt;&lt;div style=&quot;text-align: justify;&quot;&gt;&lt;span style=&quot;background-color: initial;&quot;&gt;&lt;br&gt;&lt;/span&gt;&lt;/div&gt;&lt;div style=&quot;text-align: justify;&quot;&gt;&lt;span style=&quot;background-color: initial;&quot;&gt;[USE]&lt;/span&gt;&lt;/div&gt;&lt;div style=&quot;text-align: justify;&quot;&gt;강의 수강 신청하기 C BL&lt;/div&gt;&lt;div style=&quot;text-align: justify;&quot;&gt;신청 강의 조회하기 R BL&lt;/div&gt;&lt;div style=&quot;text-align: justify;&quot;&gt;신청 강의 수정하기 U BL&lt;/div&gt;&lt;div style=&quot;text-align: justify;&quot;&gt;신청 강의 삭제하기 D BL&lt;/div&gt;" style="rounded=0;whiteSpace=wrap;html=1;align=center;" parent="1" vertex="1">
          <mxGeometry x="30" y="1345" width="250" height="260" as="geometry" />
        </mxCell>
        <mxCell id="BFY_7eOT1ol8YLlgnoYR-6" value="&lt;div style=&quot;text-align: justify;&quot;&gt;&lt;span style=&quot;background-color: initial;&quot;&gt;[관리 영역]&lt;/span&gt;&lt;/div&gt;&lt;div style=&quot;text-align: justify;&quot;&gt;&lt;span style=&quot;background-color: initial;&quot;&gt;회원 가입하기 C&amp;nbsp; BL&lt;/span&gt;&lt;/div&gt;&lt;div style=&quot;text-align: justify;&quot;&gt;&lt;span style=&quot;background-color: initial;&quot;&gt;회원 전체 조회하기 R BL&lt;/span&gt;&lt;/div&gt;&lt;div style=&quot;text-align: justify;&quot;&gt;&lt;span style=&quot;background-color: initial;&quot;&gt;회원 부분 조회하기 R BL&lt;/span&gt;&lt;/div&gt;&lt;div style=&quot;text-align: justify;&quot;&gt;&lt;span style=&quot;background-color: initial;&quot;&gt;회원 정보 수정하기 U BL&lt;/span&gt;&lt;/div&gt;&lt;div style=&quot;text-align: justify;&quot;&gt;&lt;span style=&quot;background-color: initial;&quot;&gt;회원 삭제하기 D BL&lt;/span&gt;&lt;/div&gt;&lt;div style=&quot;text-align: justify; border-color: var(--border-color);&quot;&gt;&lt;span style=&quot;border-color: var(--border-color); background-color: initial;&quot;&gt;&lt;br style=&quot;border-color: var(--border-color);&quot;&gt;&lt;/span&gt;&lt;/div&gt;&lt;div style=&quot;text-align: justify; border-color: var(--border-color);&quot;&gt;&lt;span style=&quot;border-color: var(--border-color); background-color: initial;&quot;&gt;[USE]&lt;/span&gt;&lt;/div&gt;&lt;div style=&quot;text-align: justify; border-color: var(--border-color);&quot;&gt;&lt;span style=&quot;border-color: var(--border-color); background-color: initial;&quot;&gt;회원 가입하기 C&amp;nbsp; BL&lt;br&gt;&lt;/span&gt;&lt;/div&gt;&lt;div style=&quot;text-align: justify; border-color: var(--border-color);&quot;&gt;로그인하기 BL&lt;/div&gt;&lt;div style=&quot;text-align: justify; border-color: var(--border-color);&quot;&gt;로그아웃하기 BL&lt;/div&gt;&lt;div style=&quot;text-align: justify; border-color: var(--border-color);&quot;&gt;나의 정보 확인하기 R BL&lt;/div&gt;&lt;div style=&quot;text-align: justify; border-color: var(--border-color);&quot;&gt;나의 정보 수정하기 U BL&lt;/div&gt;&lt;div style=&quot;text-align: justify; border-color: var(--border-color);&quot;&gt;회원 탈퇴하기 D BL&lt;/div&gt;" style="rounded=0;whiteSpace=wrap;html=1;" parent="1" vertex="1">
          <mxGeometry x="29" y="1705" width="250" height="260" as="geometry" />
        </mxCell>
        <mxCell id="BFY_7eOT1ol8YLlgnoYR-7" value="강의 ENTITY" style="rounded=0;whiteSpace=wrap;html=1;" parent="1" vertex="1">
          <mxGeometry x="320" y="1275" width="250" height="50" as="geometry" />
        </mxCell>
        <mxCell id="BFY_7eOT1ol8YLlgnoYR-8" value="&lt;div style=&quot;text-align: justify;&quot;&gt;[Attribute]&lt;/div&gt;&lt;div style=&quot;text-align: justify;&quot;&gt;강의 구별 번호(PK)&lt;/div&gt;&lt;div style=&quot;text-align: justify;&quot;&gt;강의명&lt;/div&gt;&lt;div style=&quot;text-align: justify;&quot;&gt;강사명&lt;/div&gt;&lt;div style=&quot;text-align: justify;&quot;&gt;강의장명&lt;/div&gt;&lt;div style=&quot;text-align: justify;&quot;&gt;강의시간&lt;/div&gt;&lt;div style=&quot;text-align: justify;&quot;&gt;상세정보&lt;/div&gt;" style="rounded=0;whiteSpace=wrap;html=1;align=center;" parent="1" vertex="1">
          <mxGeometry x="320" y="1345" width="250" height="120" as="geometry" />
        </mxCell>
        <mxCell id="BFY_7eOT1ol8YLlgnoYR-9" value="" style="endArrow=classic;html=1;rounded=0;" parent="1" edge="1">
          <mxGeometry width="50" height="50" relative="1" as="geometry">
            <mxPoint x="230" y="1410" as="sourcePoint" />
            <mxPoint x="320" y="1410" as="targetPoint" />
          </mxGeometry>
        </mxCell>
        <mxCell id="BFY_7eOT1ol8YLlgnoYR-10" value="강의 Table" style="shape=table;startSize=30;container=1;collapsible=1;childLayout=tableLayout;fixedRows=1;rowLines=0;fontStyle=1;align=center;resizeLast=1;html=1;" parent="1" vertex="1">
          <mxGeometry x="600" y="1345" width="180" height="210" as="geometry" />
        </mxCell>
        <mxCell id="BFY_7eOT1ol8YLlgnoYR-11" value="" style="shape=tableRow;horizontal=0;startSize=0;swimlaneHead=0;swimlaneBody=0;fillColor=none;collapsible=0;dropTarget=0;points=[[0,0.5],[1,0.5]];portConstraint=eastwest;top=0;left=0;right=0;bottom=1;" parent="BFY_7eOT1ol8YLlgnoYR-10" vertex="1">
          <mxGeometry y="30" width="180" height="30" as="geometry" />
        </mxCell>
        <mxCell id="BFY_7eOT1ol8YLlgnoYR-12" value="PK" style="shape=partialRectangle;connectable=0;fillColor=none;top=0;left=0;bottom=0;right=0;fontStyle=1;overflow=hidden;whiteSpace=wrap;html=1;" parent="BFY_7eOT1ol8YLlgnoYR-11" vertex="1">
          <mxGeometry width="30" height="30" as="geometry">
            <mxRectangle width="30" height="30" as="alternateBounds" />
          </mxGeometry>
        </mxCell>
        <mxCell id="BFY_7eOT1ol8YLlgnoYR-13" value="강의구별번호" style="shape=partialRectangle;connectable=0;fillColor=none;top=0;left=0;bottom=0;right=0;align=left;spacingLeft=6;fontStyle=5;overflow=hidden;whiteSpace=wrap;html=1;" parent="BFY_7eOT1ol8YLlgnoYR-11" vertex="1">
          <mxGeometry x="30" width="150" height="30" as="geometry">
            <mxRectangle width="150" height="30" as="alternateBounds" />
          </mxGeometry>
        </mxCell>
        <mxCell id="BFY_7eOT1ol8YLlgnoYR-14" value="" style="shape=tableRow;horizontal=0;startSize=0;swimlaneHead=0;swimlaneBody=0;fillColor=none;collapsible=0;dropTarget=0;points=[[0,0.5],[1,0.5]];portConstraint=eastwest;top=0;left=0;right=0;bottom=0;" parent="BFY_7eOT1ol8YLlgnoYR-10" vertex="1">
          <mxGeometry y="60" width="180" height="30" as="geometry" />
        </mxCell>
        <mxCell id="BFY_7eOT1ol8YLlgnoYR-15" value="" style="shape=partialRectangle;connectable=0;fillColor=none;top=0;left=0;bottom=0;right=0;editable=1;overflow=hidden;whiteSpace=wrap;html=1;" parent="BFY_7eOT1ol8YLlgnoYR-14" vertex="1">
          <mxGeometry width="30" height="30" as="geometry">
            <mxRectangle width="30" height="30" as="alternateBounds" />
          </mxGeometry>
        </mxCell>
        <mxCell id="BFY_7eOT1ol8YLlgnoYR-16" value="강의명" style="shape=partialRectangle;connectable=0;fillColor=none;top=0;left=0;bottom=0;right=0;align=left;spacingLeft=6;overflow=hidden;whiteSpace=wrap;html=1;" parent="BFY_7eOT1ol8YLlgnoYR-14" vertex="1">
          <mxGeometry x="30" width="150" height="30" as="geometry">
            <mxRectangle width="150" height="30" as="alternateBounds" />
          </mxGeometry>
        </mxCell>
        <mxCell id="BFY_7eOT1ol8YLlgnoYR-17" value="" style="shape=tableRow;horizontal=0;startSize=0;swimlaneHead=0;swimlaneBody=0;fillColor=none;collapsible=0;dropTarget=0;points=[[0,0.5],[1,0.5]];portConstraint=eastwest;top=0;left=0;right=0;bottom=0;" parent="BFY_7eOT1ol8YLlgnoYR-10" vertex="1">
          <mxGeometry y="90" width="180" height="30" as="geometry" />
        </mxCell>
        <mxCell id="BFY_7eOT1ol8YLlgnoYR-18" value="" style="shape=partialRectangle;connectable=0;fillColor=none;top=0;left=0;bottom=0;right=0;editable=1;overflow=hidden;whiteSpace=wrap;html=1;" parent="BFY_7eOT1ol8YLlgnoYR-17" vertex="1">
          <mxGeometry width="30" height="30" as="geometry">
            <mxRectangle width="30" height="30" as="alternateBounds" />
          </mxGeometry>
        </mxCell>
        <mxCell id="BFY_7eOT1ol8YLlgnoYR-19" value="강사명" style="shape=partialRectangle;connectable=0;fillColor=none;top=0;left=0;bottom=0;right=0;align=left;spacingLeft=6;overflow=hidden;whiteSpace=wrap;html=1;" parent="BFY_7eOT1ol8YLlgnoYR-17" vertex="1">
          <mxGeometry x="30" width="150" height="30" as="geometry">
            <mxRectangle width="150" height="30" as="alternateBounds" />
          </mxGeometry>
        </mxCell>
        <mxCell id="BFY_7eOT1ol8YLlgnoYR-20" value="" style="shape=tableRow;horizontal=0;startSize=0;swimlaneHead=0;swimlaneBody=0;fillColor=none;collapsible=0;dropTarget=0;points=[[0,0.5],[1,0.5]];portConstraint=eastwest;top=0;left=0;right=0;bottom=0;" parent="BFY_7eOT1ol8YLlgnoYR-10" vertex="1">
          <mxGeometry y="120" width="180" height="30" as="geometry" />
        </mxCell>
        <mxCell id="BFY_7eOT1ol8YLlgnoYR-21" value="" style="shape=partialRectangle;connectable=0;fillColor=none;top=0;left=0;bottom=0;right=0;editable=1;overflow=hidden;whiteSpace=wrap;html=1;" parent="BFY_7eOT1ol8YLlgnoYR-20" vertex="1">
          <mxGeometry width="30" height="30" as="geometry">
            <mxRectangle width="30" height="30" as="alternateBounds" />
          </mxGeometry>
        </mxCell>
        <mxCell id="BFY_7eOT1ol8YLlgnoYR-22" value="강의장명" style="shape=partialRectangle;connectable=0;fillColor=none;top=0;left=0;bottom=0;right=0;align=left;spacingLeft=6;overflow=hidden;whiteSpace=wrap;html=1;" parent="BFY_7eOT1ol8YLlgnoYR-20" vertex="1">
          <mxGeometry x="30" width="150" height="30" as="geometry">
            <mxRectangle width="150" height="30" as="alternateBounds" />
          </mxGeometry>
        </mxCell>
        <mxCell id="BFY_7eOT1ol8YLlgnoYR-23" value="" style="shape=tableRow;horizontal=0;startSize=0;swimlaneHead=0;swimlaneBody=0;fillColor=none;collapsible=0;dropTarget=0;points=[[0,0.5],[1,0.5]];portConstraint=eastwest;top=0;left=0;right=0;bottom=0;" parent="BFY_7eOT1ol8YLlgnoYR-10" vertex="1">
          <mxGeometry y="150" width="180" height="30" as="geometry" />
        </mxCell>
        <mxCell id="BFY_7eOT1ol8YLlgnoYR-24" value="" style="shape=partialRectangle;connectable=0;fillColor=none;top=0;left=0;bottom=0;right=0;editable=1;overflow=hidden;whiteSpace=wrap;html=1;" parent="BFY_7eOT1ol8YLlgnoYR-23" vertex="1">
          <mxGeometry width="30" height="30" as="geometry">
            <mxRectangle width="30" height="30" as="alternateBounds" />
          </mxGeometry>
        </mxCell>
        <mxCell id="BFY_7eOT1ol8YLlgnoYR-25" value="강의시간" style="shape=partialRectangle;connectable=0;fillColor=none;top=0;left=0;bottom=0;right=0;align=left;spacingLeft=6;overflow=hidden;whiteSpace=wrap;html=1;" parent="BFY_7eOT1ol8YLlgnoYR-23" vertex="1">
          <mxGeometry x="30" width="150" height="30" as="geometry">
            <mxRectangle width="150" height="30" as="alternateBounds" />
          </mxGeometry>
        </mxCell>
        <mxCell id="BFY_7eOT1ol8YLlgnoYR-26" value="" style="shape=tableRow;horizontal=0;startSize=0;swimlaneHead=0;swimlaneBody=0;fillColor=none;collapsible=0;dropTarget=0;points=[[0,0.5],[1,0.5]];portConstraint=eastwest;top=0;left=0;right=0;bottom=0;" parent="BFY_7eOT1ol8YLlgnoYR-10" vertex="1">
          <mxGeometry y="180" width="180" height="30" as="geometry" />
        </mxCell>
        <mxCell id="BFY_7eOT1ol8YLlgnoYR-27" value="" style="shape=partialRectangle;connectable=0;fillColor=none;top=0;left=0;bottom=0;right=0;editable=1;overflow=hidden;whiteSpace=wrap;html=1;" parent="BFY_7eOT1ol8YLlgnoYR-26" vertex="1">
          <mxGeometry width="30" height="30" as="geometry">
            <mxRectangle width="30" height="30" as="alternateBounds" />
          </mxGeometry>
        </mxCell>
        <mxCell id="BFY_7eOT1ol8YLlgnoYR-28" value="상세정보" style="shape=partialRectangle;connectable=0;fillColor=none;top=0;left=0;bottom=0;right=0;align=left;spacingLeft=6;overflow=hidden;whiteSpace=wrap;html=1;" parent="BFY_7eOT1ol8YLlgnoYR-26" vertex="1">
          <mxGeometry x="30" width="150" height="30" as="geometry">
            <mxRectangle width="150" height="30" as="alternateBounds" />
          </mxGeometry>
        </mxCell>
        <mxCell id="BFY_7eOT1ol8YLlgnoYR-29" value="회원 ENTITY" style="rounded=0;whiteSpace=wrap;html=1;" parent="1" vertex="1">
          <mxGeometry x="320" y="1635" width="250" height="50" as="geometry" />
        </mxCell>
        <mxCell id="BFY_7eOT1ol8YLlgnoYR-30" value="&lt;div style=&quot;text-align: justify;&quot;&gt;[Attribute]&lt;/div&gt;&lt;div style=&quot;text-align: justify;&quot;&gt;회원 ID(PK)&lt;/div&gt;&lt;div style=&quot;text-align: justify;&quot;&gt;회원 PW&lt;/div&gt;&lt;div style=&quot;text-align: justify;&quot;&gt;회원 이름&lt;/div&gt;&lt;div style=&quot;text-align: justify;&quot;&gt;회원 연락처&lt;/div&gt;&lt;div style=&quot;text-align: justify;&quot;&gt;회원 주소&lt;/div&gt;" style="rounded=0;whiteSpace=wrap;html=1;align=center;" parent="1" vertex="1">
          <mxGeometry x="320" y="1705" width="250" height="120" as="geometry" />
        </mxCell>
        <mxCell id="BFY_7eOT1ol8YLlgnoYR-31" value="회원 Table" style="shape=table;startSize=30;container=1;collapsible=1;childLayout=tableLayout;fixedRows=1;rowLines=0;fontStyle=1;align=center;resizeLast=1;html=1;" parent="1" vertex="1">
          <mxGeometry x="600" y="1705" width="180" height="180" as="geometry" />
        </mxCell>
        <mxCell id="BFY_7eOT1ol8YLlgnoYR-32" value="" style="shape=tableRow;horizontal=0;startSize=0;swimlaneHead=0;swimlaneBody=0;fillColor=none;collapsible=0;dropTarget=0;points=[[0,0.5],[1,0.5]];portConstraint=eastwest;top=0;left=0;right=0;bottom=1;" parent="BFY_7eOT1ol8YLlgnoYR-31" vertex="1">
          <mxGeometry y="30" width="180" height="30" as="geometry" />
        </mxCell>
        <mxCell id="BFY_7eOT1ol8YLlgnoYR-33" value="PK" style="shape=partialRectangle;connectable=0;fillColor=none;top=0;left=0;bottom=0;right=0;fontStyle=1;overflow=hidden;whiteSpace=wrap;html=1;" parent="BFY_7eOT1ol8YLlgnoYR-32" vertex="1">
          <mxGeometry width="30" height="30" as="geometry">
            <mxRectangle width="30" height="30" as="alternateBounds" />
          </mxGeometry>
        </mxCell>
        <mxCell id="BFY_7eOT1ol8YLlgnoYR-34" value="회원ID" style="shape=partialRectangle;connectable=0;fillColor=none;top=0;left=0;bottom=0;right=0;align=left;spacingLeft=6;fontStyle=5;overflow=hidden;whiteSpace=wrap;html=1;" parent="BFY_7eOT1ol8YLlgnoYR-32" vertex="1">
          <mxGeometry x="30" width="150" height="30" as="geometry">
            <mxRectangle width="150" height="30" as="alternateBounds" />
          </mxGeometry>
        </mxCell>
        <mxCell id="BFY_7eOT1ol8YLlgnoYR-35" value="" style="shape=tableRow;horizontal=0;startSize=0;swimlaneHead=0;swimlaneBody=0;fillColor=none;collapsible=0;dropTarget=0;points=[[0,0.5],[1,0.5]];portConstraint=eastwest;top=0;left=0;right=0;bottom=0;" parent="BFY_7eOT1ol8YLlgnoYR-31" vertex="1">
          <mxGeometry y="60" width="180" height="30" as="geometry" />
        </mxCell>
        <mxCell id="BFY_7eOT1ol8YLlgnoYR-36" value="" style="shape=partialRectangle;connectable=0;fillColor=none;top=0;left=0;bottom=0;right=0;editable=1;overflow=hidden;whiteSpace=wrap;html=1;" parent="BFY_7eOT1ol8YLlgnoYR-35" vertex="1">
          <mxGeometry width="30" height="30" as="geometry">
            <mxRectangle width="30" height="30" as="alternateBounds" />
          </mxGeometry>
        </mxCell>
        <mxCell id="BFY_7eOT1ol8YLlgnoYR-37" value="회원PW" style="shape=partialRectangle;connectable=0;fillColor=none;top=0;left=0;bottom=0;right=0;align=left;spacingLeft=6;overflow=hidden;whiteSpace=wrap;html=1;" parent="BFY_7eOT1ol8YLlgnoYR-35" vertex="1">
          <mxGeometry x="30" width="150" height="30" as="geometry">
            <mxRectangle width="150" height="30" as="alternateBounds" />
          </mxGeometry>
        </mxCell>
        <mxCell id="BFY_7eOT1ol8YLlgnoYR-38" value="" style="shape=tableRow;horizontal=0;startSize=0;swimlaneHead=0;swimlaneBody=0;fillColor=none;collapsible=0;dropTarget=0;points=[[0,0.5],[1,0.5]];portConstraint=eastwest;top=0;left=0;right=0;bottom=0;" parent="BFY_7eOT1ol8YLlgnoYR-31" vertex="1">
          <mxGeometry y="90" width="180" height="30" as="geometry" />
        </mxCell>
        <mxCell id="BFY_7eOT1ol8YLlgnoYR-39" value="" style="shape=partialRectangle;connectable=0;fillColor=none;top=0;left=0;bottom=0;right=0;editable=1;overflow=hidden;whiteSpace=wrap;html=1;" parent="BFY_7eOT1ol8YLlgnoYR-38" vertex="1">
          <mxGeometry width="30" height="30" as="geometry">
            <mxRectangle width="30" height="30" as="alternateBounds" />
          </mxGeometry>
        </mxCell>
        <mxCell id="BFY_7eOT1ol8YLlgnoYR-40" value="회원이름" style="shape=partialRectangle;connectable=0;fillColor=none;top=0;left=0;bottom=0;right=0;align=left;spacingLeft=6;overflow=hidden;whiteSpace=wrap;html=1;" parent="BFY_7eOT1ol8YLlgnoYR-38" vertex="1">
          <mxGeometry x="30" width="150" height="30" as="geometry">
            <mxRectangle width="150" height="30" as="alternateBounds" />
          </mxGeometry>
        </mxCell>
        <mxCell id="BFY_7eOT1ol8YLlgnoYR-41" value="" style="shape=tableRow;horizontal=0;startSize=0;swimlaneHead=0;swimlaneBody=0;fillColor=none;collapsible=0;dropTarget=0;points=[[0,0.5],[1,0.5]];portConstraint=eastwest;top=0;left=0;right=0;bottom=0;" parent="BFY_7eOT1ol8YLlgnoYR-31" vertex="1">
          <mxGeometry y="120" width="180" height="30" as="geometry" />
        </mxCell>
        <mxCell id="BFY_7eOT1ol8YLlgnoYR-42" value="" style="shape=partialRectangle;connectable=0;fillColor=none;top=0;left=0;bottom=0;right=0;editable=1;overflow=hidden;whiteSpace=wrap;html=1;" parent="BFY_7eOT1ol8YLlgnoYR-41" vertex="1">
          <mxGeometry width="30" height="30" as="geometry">
            <mxRectangle width="30" height="30" as="alternateBounds" />
          </mxGeometry>
        </mxCell>
        <mxCell id="BFY_7eOT1ol8YLlgnoYR-43" value="회원 연락처" style="shape=partialRectangle;connectable=0;fillColor=none;top=0;left=0;bottom=0;right=0;align=left;spacingLeft=6;overflow=hidden;whiteSpace=wrap;html=1;" parent="BFY_7eOT1ol8YLlgnoYR-41" vertex="1">
          <mxGeometry x="30" width="150" height="30" as="geometry">
            <mxRectangle width="150" height="30" as="alternateBounds" />
          </mxGeometry>
        </mxCell>
        <mxCell id="BFY_7eOT1ol8YLlgnoYR-44" value="" style="shape=tableRow;horizontal=0;startSize=0;swimlaneHead=0;swimlaneBody=0;fillColor=none;collapsible=0;dropTarget=0;points=[[0,0.5],[1,0.5]];portConstraint=eastwest;top=0;left=0;right=0;bottom=0;" parent="BFY_7eOT1ol8YLlgnoYR-31" vertex="1">
          <mxGeometry y="150" width="180" height="30" as="geometry" />
        </mxCell>
        <mxCell id="BFY_7eOT1ol8YLlgnoYR-45" value="" style="shape=partialRectangle;connectable=0;fillColor=none;top=0;left=0;bottom=0;right=0;editable=1;overflow=hidden;whiteSpace=wrap;html=1;" parent="BFY_7eOT1ol8YLlgnoYR-44" vertex="1">
          <mxGeometry width="30" height="30" as="geometry">
            <mxRectangle width="30" height="30" as="alternateBounds" />
          </mxGeometry>
        </mxCell>
        <mxCell id="BFY_7eOT1ol8YLlgnoYR-46" value="회원 주소" style="shape=partialRectangle;connectable=0;fillColor=none;top=0;left=0;bottom=0;right=0;align=left;spacingLeft=6;overflow=hidden;whiteSpace=wrap;html=1;" parent="BFY_7eOT1ol8YLlgnoYR-44" vertex="1">
          <mxGeometry x="30" width="150" height="30" as="geometry">
            <mxRectangle width="150" height="30" as="alternateBounds" />
          </mxGeometry>
        </mxCell>
        <mxCell id="BFY_7eOT1ol8YLlgnoYR-47" value="" style="endArrow=classic;html=1;rounded=0;exitX=0.724;exitY=0.192;exitDx=0;exitDy=0;exitPerimeter=0;" parent="1" source="BFY_7eOT1ol8YLlgnoYR-6" edge="1">
          <mxGeometry width="50" height="50" relative="1" as="geometry">
            <mxPoint x="230" y="1755" as="sourcePoint" />
            <mxPoint x="320" y="1755" as="targetPoint" />
          </mxGeometry>
        </mxCell>
        <mxCell id="BFY_7eOT1ol8YLlgnoYR-48" value="" style="rounded=0;whiteSpace=wrap;html=1;" parent="1" vertex="1">
          <mxGeometry x="20" y="2020" width="1340" height="50" as="geometry" />
        </mxCell>
        <mxCell id="BFY_7eOT1ol8YLlgnoYR-49" value="&lt;div style=&quot;text-align: justify;&quot;&gt;&lt;span style=&quot;background-color: initial;&quot;&gt;개념적 설계(ERD)&lt;/span&gt;&lt;/div&gt;" style="text;whiteSpace=wrap;html=1;" parent="1" vertex="1">
          <mxGeometry x="31" y="2030" width="420" height="40" as="geometry" />
        </mxCell>
        <mxCell id="BFY_7eOT1ol8YLlgnoYR-50" value="강의 서비스" style="rounded=0;whiteSpace=wrap;html=1;" parent="1" vertex="1">
          <mxGeometry x="31" y="2100" width="250" height="50" as="geometry" />
        </mxCell>
        <mxCell id="BFY_7eOT1ol8YLlgnoYR-51" value="회원 서비스" style="rounded=0;whiteSpace=wrap;html=1;" parent="1" vertex="1">
          <mxGeometry x="29" y="2460" width="250" height="50" as="geometry" />
        </mxCell>
        <mxCell id="BFY_7eOT1ol8YLlgnoYR-52" value="&lt;div style=&quot;text-align: justify;&quot;&gt;&lt;span style=&quot;background-color: initial;&quot;&gt;[관리 영역]&lt;/span&gt;&lt;/div&gt;&lt;div style=&quot;text-align: justify;&quot;&gt;&lt;span style=&quot;background-color: initial;&quot;&gt;신규 강의 생성하기 C BL&lt;/span&gt;&lt;/div&gt;&lt;div style=&quot;text-align: justify;&quot;&gt;&lt;span style=&quot;background-color: initial;&quot;&gt;강의 전체 조회하기 R BL&lt;/span&gt;&lt;/div&gt;&lt;div style=&quot;text-align: justify;&quot;&gt;&lt;span style=&quot;background-color: initial;&quot;&gt;강의 부분 조회하기 R BL&lt;/span&gt;&lt;/div&gt;&lt;div style=&quot;text-align: justify;&quot;&gt;&lt;span style=&quot;background-color: initial;&quot;&gt;기존 강의 수정하기 U BL&lt;/span&gt;&lt;/div&gt;&lt;div style=&quot;text-align: justify;&quot;&gt;&lt;span style=&quot;background-color: initial;&quot;&gt;기존 강의 삭제하기 D BL&lt;/span&gt;&lt;/div&gt;&lt;div style=&quot;text-align: justify;&quot;&gt;&lt;span style=&quot;background-color: initial;&quot;&gt;&lt;br&gt;&lt;/span&gt;&lt;/div&gt;&lt;div style=&quot;text-align: justify;&quot;&gt;&lt;span style=&quot;background-color: initial;&quot;&gt;[USE]&lt;/span&gt;&lt;/div&gt;&lt;div style=&quot;text-align: justify;&quot;&gt;&lt;u&gt;강의 수강 신청하기 &lt;font color=&quot;#fa5067&quot;&gt;C&lt;/font&gt; BL&lt;/u&gt;&lt;/div&gt;&lt;div style=&quot;text-align: justify;&quot;&gt;신청 강의 조회하기 R BL&lt;/div&gt;&lt;div style=&quot;text-align: justify;&quot;&gt;신청 강의 수정하기 U BL&lt;/div&gt;&lt;div style=&quot;text-align: justify;&quot;&gt;신청 강의 삭제하기 D BL&lt;/div&gt;" style="rounded=0;whiteSpace=wrap;html=1;align=center;" parent="1" vertex="1">
          <mxGeometry x="30" y="2170" width="250" height="260" as="geometry" />
        </mxCell>
        <mxCell id="BFY_7eOT1ol8YLlgnoYR-53" value="&lt;div style=&quot;text-align: justify;&quot;&gt;&lt;span style=&quot;background-color: initial;&quot;&gt;[관리 영역]&lt;/span&gt;&lt;/div&gt;&lt;div style=&quot;text-align: justify;&quot;&gt;&lt;span style=&quot;background-color: initial;&quot;&gt;회원 가입하기 C&amp;nbsp; BL&lt;/span&gt;&lt;/div&gt;&lt;div style=&quot;text-align: justify;&quot;&gt;&lt;span style=&quot;background-color: initial;&quot;&gt;회원 전체 조회하기 R BL&lt;/span&gt;&lt;/div&gt;&lt;div style=&quot;text-align: justify;&quot;&gt;&lt;span style=&quot;background-color: initial;&quot;&gt;회원 부분 조회하기 R BL&lt;/span&gt;&lt;/div&gt;&lt;div style=&quot;text-align: justify;&quot;&gt;&lt;span style=&quot;background-color: initial;&quot;&gt;회원 정보 수정하기 U BL&lt;/span&gt;&lt;/div&gt;&lt;div style=&quot;text-align: justify;&quot;&gt;&lt;span style=&quot;background-color: initial;&quot;&gt;회원 삭제하기 D BL&lt;/span&gt;&lt;/div&gt;&lt;div style=&quot;text-align: justify; border-color: var(--border-color);&quot;&gt;&lt;span style=&quot;border-color: var(--border-color); background-color: initial;&quot;&gt;&lt;br style=&quot;border-color: var(--border-color);&quot;&gt;&lt;/span&gt;&lt;/div&gt;&lt;div style=&quot;text-align: justify; border-color: var(--border-color);&quot;&gt;&lt;span style=&quot;border-color: var(--border-color); background-color: initial;&quot;&gt;[USE]&lt;/span&gt;&lt;/div&gt;&lt;div style=&quot;text-align: justify; border-color: var(--border-color);&quot;&gt;&lt;span style=&quot;border-color: var(--border-color); background-color: initial;&quot;&gt;회원 가입하기 C&amp;nbsp; BL&lt;br&gt;&lt;/span&gt;&lt;/div&gt;&lt;div style=&quot;text-align: justify; border-color: var(--border-color);&quot;&gt;로그인하기 BL&lt;/div&gt;&lt;div style=&quot;text-align: justify; border-color: var(--border-color);&quot;&gt;로그아웃하기 BL&lt;/div&gt;&lt;div style=&quot;text-align: justify; border-color: var(--border-color);&quot;&gt;나의 정보 확인하기 R BL&lt;/div&gt;&lt;div style=&quot;text-align: justify; border-color: var(--border-color);&quot;&gt;나의 정보 수정하기 U BL&lt;/div&gt;&lt;div style=&quot;text-align: justify; border-color: var(--border-color);&quot;&gt;회원 탈퇴하기 D BL&lt;/div&gt;" style="rounded=0;whiteSpace=wrap;html=1;" parent="1" vertex="1">
          <mxGeometry x="29" y="2530" width="250" height="260" as="geometry" />
        </mxCell>
        <mxCell id="BFY_7eOT1ol8YLlgnoYR-54" value="강의 ENTITY" style="rounded=0;whiteSpace=wrap;html=1;" parent="1" vertex="1">
          <mxGeometry x="320" y="2100" width="250" height="50" as="geometry" />
        </mxCell>
        <mxCell id="BFY_7eOT1ol8YLlgnoYR-55" value="&lt;div style=&quot;text-align: justify;&quot;&gt;[Attribute]&lt;/div&gt;&lt;div style=&quot;text-align: justify;&quot;&gt;강의 구별 번호(PK)&lt;/div&gt;&lt;div style=&quot;text-align: justify;&quot;&gt;강의명&lt;/div&gt;&lt;div style=&quot;text-align: justify;&quot;&gt;강사명&lt;/div&gt;&lt;div style=&quot;text-align: justify;&quot;&gt;강의장명&lt;/div&gt;&lt;div style=&quot;text-align: justify;&quot;&gt;강의시간&lt;/div&gt;&lt;div style=&quot;text-align: justify;&quot;&gt;상세정보&lt;/div&gt;" style="rounded=0;whiteSpace=wrap;html=1;align=center;" parent="1" vertex="1">
          <mxGeometry x="320" y="2170" width="250" height="120" as="geometry" />
        </mxCell>
        <mxCell id="BFY_7eOT1ol8YLlgnoYR-56" value="" style="endArrow=classic;html=1;rounded=0;" parent="1" edge="1">
          <mxGeometry width="50" height="50" relative="1" as="geometry">
            <mxPoint x="230" y="2235" as="sourcePoint" />
            <mxPoint x="320" y="2235" as="targetPoint" />
          </mxGeometry>
        </mxCell>
        <mxCell id="BFY_7eOT1ol8YLlgnoYR-117" value="" style="edgeStyle=orthogonalEdgeStyle;rounded=0;orthogonalLoop=1;jettySize=auto;html=1;fontFamily=Helvetica;fontSize=11;fontColor=default;endArrow=ERmany;endFill=0;startArrow=ERone;startFill=0;" parent="1" source="BFY_7eOT1ol8YLlgnoYR-67" target="BFY_7eOT1ol8YLlgnoYR-102" edge="1">
          <mxGeometry relative="1" as="geometry" />
        </mxCell>
        <mxCell id="vibM6O2SVgyTgFdfeI1k-25" value="" style="edgeStyle=orthogonalEdgeStyle;rounded=0;orthogonalLoop=1;jettySize=auto;html=1;fontFamily=Helvetica;fontSize=11;fontColor=default;startArrow=ERone;startFill=0;endArrow=ERoneToMany;endFill=0;" parent="1" source="BFY_7eOT1ol8YLlgnoYR-57" target="vibM6O2SVgyTgFdfeI1k-6" edge="1">
          <mxGeometry relative="1" as="geometry" />
        </mxCell>
        <mxCell id="BFY_7eOT1ol8YLlgnoYR-57" value="강의 Table" style="shape=table;startSize=30;container=1;collapsible=1;childLayout=tableLayout;fixedRows=1;rowLines=0;fontStyle=1;align=center;resizeLast=1;html=1;" parent="1" vertex="1">
          <mxGeometry x="640" y="2320" width="180" height="210" as="geometry" />
        </mxCell>
        <mxCell id="BFY_7eOT1ol8YLlgnoYR-58" value="" style="shape=tableRow;horizontal=0;startSize=0;swimlaneHead=0;swimlaneBody=0;fillColor=none;collapsible=0;dropTarget=0;points=[[0,0.5],[1,0.5]];portConstraint=eastwest;top=0;left=0;right=0;bottom=1;" parent="BFY_7eOT1ol8YLlgnoYR-57" vertex="1">
          <mxGeometry y="30" width="180" height="30" as="geometry" />
        </mxCell>
        <mxCell id="BFY_7eOT1ol8YLlgnoYR-59" value="PK" style="shape=partialRectangle;connectable=0;fillColor=none;top=0;left=0;bottom=0;right=0;fontStyle=1;overflow=hidden;whiteSpace=wrap;html=1;" parent="BFY_7eOT1ol8YLlgnoYR-58" vertex="1">
          <mxGeometry width="30" height="30" as="geometry">
            <mxRectangle width="30" height="30" as="alternateBounds" />
          </mxGeometry>
        </mxCell>
        <mxCell id="BFY_7eOT1ol8YLlgnoYR-60" value="강의구별번호" style="shape=partialRectangle;connectable=0;fillColor=none;top=0;left=0;bottom=0;right=0;align=left;spacingLeft=6;fontStyle=5;overflow=hidden;whiteSpace=wrap;html=1;" parent="BFY_7eOT1ol8YLlgnoYR-58" vertex="1">
          <mxGeometry x="30" width="150" height="30" as="geometry">
            <mxRectangle width="150" height="30" as="alternateBounds" />
          </mxGeometry>
        </mxCell>
        <mxCell id="BFY_7eOT1ol8YLlgnoYR-61" value="" style="shape=tableRow;horizontal=0;startSize=0;swimlaneHead=0;swimlaneBody=0;fillColor=none;collapsible=0;dropTarget=0;points=[[0,0.5],[1,0.5]];portConstraint=eastwest;top=0;left=0;right=0;bottom=0;" parent="BFY_7eOT1ol8YLlgnoYR-57" vertex="1">
          <mxGeometry y="60" width="180" height="30" as="geometry" />
        </mxCell>
        <mxCell id="BFY_7eOT1ol8YLlgnoYR-62" value="" style="shape=partialRectangle;connectable=0;fillColor=none;top=0;left=0;bottom=0;right=0;editable=1;overflow=hidden;whiteSpace=wrap;html=1;" parent="BFY_7eOT1ol8YLlgnoYR-61" vertex="1">
          <mxGeometry width="30" height="30" as="geometry">
            <mxRectangle width="30" height="30" as="alternateBounds" />
          </mxGeometry>
        </mxCell>
        <mxCell id="BFY_7eOT1ol8YLlgnoYR-63" value="강의명" style="shape=partialRectangle;connectable=0;fillColor=none;top=0;left=0;bottom=0;right=0;align=left;spacingLeft=6;overflow=hidden;whiteSpace=wrap;html=1;" parent="BFY_7eOT1ol8YLlgnoYR-61" vertex="1">
          <mxGeometry x="30" width="150" height="30" as="geometry">
            <mxRectangle width="150" height="30" as="alternateBounds" />
          </mxGeometry>
        </mxCell>
        <mxCell id="BFY_7eOT1ol8YLlgnoYR-64" value="" style="shape=tableRow;horizontal=0;startSize=0;swimlaneHead=0;swimlaneBody=0;fillColor=none;collapsible=0;dropTarget=0;points=[[0,0.5],[1,0.5]];portConstraint=eastwest;top=0;left=0;right=0;bottom=0;" parent="BFY_7eOT1ol8YLlgnoYR-57" vertex="1">
          <mxGeometry y="90" width="180" height="30" as="geometry" />
        </mxCell>
        <mxCell id="BFY_7eOT1ol8YLlgnoYR-65" value="" style="shape=partialRectangle;connectable=0;fillColor=none;top=0;left=0;bottom=0;right=0;editable=1;overflow=hidden;whiteSpace=wrap;html=1;" parent="BFY_7eOT1ol8YLlgnoYR-64" vertex="1">
          <mxGeometry width="30" height="30" as="geometry">
            <mxRectangle width="30" height="30" as="alternateBounds" />
          </mxGeometry>
        </mxCell>
        <mxCell id="BFY_7eOT1ol8YLlgnoYR-66" value="강사명" style="shape=partialRectangle;connectable=0;fillColor=none;top=0;left=0;bottom=0;right=0;align=left;spacingLeft=6;overflow=hidden;whiteSpace=wrap;html=1;" parent="BFY_7eOT1ol8YLlgnoYR-64" vertex="1">
          <mxGeometry x="30" width="150" height="30" as="geometry">
            <mxRectangle width="150" height="30" as="alternateBounds" />
          </mxGeometry>
        </mxCell>
        <mxCell id="BFY_7eOT1ol8YLlgnoYR-67" value="" style="shape=tableRow;horizontal=0;startSize=0;swimlaneHead=0;swimlaneBody=0;fillColor=none;collapsible=0;dropTarget=0;points=[[0,0.5],[1,0.5]];portConstraint=eastwest;top=0;left=0;right=0;bottom=0;" parent="BFY_7eOT1ol8YLlgnoYR-57" vertex="1">
          <mxGeometry y="120" width="180" height="30" as="geometry" />
        </mxCell>
        <mxCell id="BFY_7eOT1ol8YLlgnoYR-68" value="" style="shape=partialRectangle;connectable=0;fillColor=none;top=0;left=0;bottom=0;right=0;editable=1;overflow=hidden;whiteSpace=wrap;html=1;" parent="BFY_7eOT1ol8YLlgnoYR-67" vertex="1">
          <mxGeometry width="30" height="30" as="geometry">
            <mxRectangle width="30" height="30" as="alternateBounds" />
          </mxGeometry>
        </mxCell>
        <mxCell id="BFY_7eOT1ol8YLlgnoYR-69" value="강의장명" style="shape=partialRectangle;connectable=0;fillColor=none;top=0;left=0;bottom=0;right=0;align=left;spacingLeft=6;overflow=hidden;whiteSpace=wrap;html=1;" parent="BFY_7eOT1ol8YLlgnoYR-67" vertex="1">
          <mxGeometry x="30" width="150" height="30" as="geometry">
            <mxRectangle width="150" height="30" as="alternateBounds" />
          </mxGeometry>
        </mxCell>
        <mxCell id="BFY_7eOT1ol8YLlgnoYR-70" value="" style="shape=tableRow;horizontal=0;startSize=0;swimlaneHead=0;swimlaneBody=0;fillColor=none;collapsible=0;dropTarget=0;points=[[0,0.5],[1,0.5]];portConstraint=eastwest;top=0;left=0;right=0;bottom=0;" parent="BFY_7eOT1ol8YLlgnoYR-57" vertex="1">
          <mxGeometry y="150" width="180" height="30" as="geometry" />
        </mxCell>
        <mxCell id="BFY_7eOT1ol8YLlgnoYR-71" value="" style="shape=partialRectangle;connectable=0;fillColor=none;top=0;left=0;bottom=0;right=0;editable=1;overflow=hidden;whiteSpace=wrap;html=1;" parent="BFY_7eOT1ol8YLlgnoYR-70" vertex="1">
          <mxGeometry width="30" height="30" as="geometry">
            <mxRectangle width="30" height="30" as="alternateBounds" />
          </mxGeometry>
        </mxCell>
        <mxCell id="BFY_7eOT1ol8YLlgnoYR-72" value="강의시간" style="shape=partialRectangle;connectable=0;fillColor=none;top=0;left=0;bottom=0;right=0;align=left;spacingLeft=6;overflow=hidden;whiteSpace=wrap;html=1;" parent="BFY_7eOT1ol8YLlgnoYR-70" vertex="1">
          <mxGeometry x="30" width="150" height="30" as="geometry">
            <mxRectangle width="150" height="30" as="alternateBounds" />
          </mxGeometry>
        </mxCell>
        <mxCell id="BFY_7eOT1ol8YLlgnoYR-73" value="" style="shape=tableRow;horizontal=0;startSize=0;swimlaneHead=0;swimlaneBody=0;fillColor=none;collapsible=0;dropTarget=0;points=[[0,0.5],[1,0.5]];portConstraint=eastwest;top=0;left=0;right=0;bottom=0;" parent="BFY_7eOT1ol8YLlgnoYR-57" vertex="1">
          <mxGeometry y="180" width="180" height="30" as="geometry" />
        </mxCell>
        <mxCell id="BFY_7eOT1ol8YLlgnoYR-74" value="" style="shape=partialRectangle;connectable=0;fillColor=none;top=0;left=0;bottom=0;right=0;editable=1;overflow=hidden;whiteSpace=wrap;html=1;" parent="BFY_7eOT1ol8YLlgnoYR-73" vertex="1">
          <mxGeometry width="30" height="30" as="geometry">
            <mxRectangle width="30" height="30" as="alternateBounds" />
          </mxGeometry>
        </mxCell>
        <mxCell id="BFY_7eOT1ol8YLlgnoYR-75" value="상세정보" style="shape=partialRectangle;connectable=0;fillColor=none;top=0;left=0;bottom=0;right=0;align=left;spacingLeft=6;overflow=hidden;whiteSpace=wrap;html=1;" parent="BFY_7eOT1ol8YLlgnoYR-73" vertex="1">
          <mxGeometry x="30" width="150" height="30" as="geometry">
            <mxRectangle width="150" height="30" as="alternateBounds" />
          </mxGeometry>
        </mxCell>
        <mxCell id="BFY_7eOT1ol8YLlgnoYR-76" value="회원 ENTITY" style="rounded=0;whiteSpace=wrap;html=1;" parent="1" vertex="1">
          <mxGeometry x="320" y="2460" width="250" height="50" as="geometry" />
        </mxCell>
        <mxCell id="BFY_7eOT1ol8YLlgnoYR-77" value="&lt;div style=&quot;text-align: justify;&quot;&gt;[Attribute]&lt;/div&gt;&lt;div style=&quot;text-align: justify;&quot;&gt;회원 ID(PK)&lt;/div&gt;&lt;div style=&quot;text-align: justify;&quot;&gt;회원 PW&lt;/div&gt;&lt;div style=&quot;text-align: justify;&quot;&gt;회원 이름&lt;/div&gt;&lt;div style=&quot;text-align: justify;&quot;&gt;회원 연락처&lt;/div&gt;&lt;div style=&quot;text-align: justify;&quot;&gt;회원 주소&lt;/div&gt;" style="rounded=0;whiteSpace=wrap;html=1;align=center;" parent="1" vertex="1">
          <mxGeometry x="320" y="2530" width="250" height="120" as="geometry" />
        </mxCell>
        <mxCell id="BFY_7eOT1ol8YLlgnoYR-78" value="회원 Table" style="shape=table;startSize=30;container=1;collapsible=1;childLayout=tableLayout;fixedRows=1;rowLines=0;fontStyle=1;align=center;resizeLast=1;html=1;" parent="1" vertex="1">
          <mxGeometry x="1160" y="2380" width="180" height="180" as="geometry" />
        </mxCell>
        <mxCell id="BFY_7eOT1ol8YLlgnoYR-79" value="" style="shape=tableRow;horizontal=0;startSize=0;swimlaneHead=0;swimlaneBody=0;fillColor=none;collapsible=0;dropTarget=0;points=[[0,0.5],[1,0.5]];portConstraint=eastwest;top=0;left=0;right=0;bottom=1;" parent="BFY_7eOT1ol8YLlgnoYR-78" vertex="1">
          <mxGeometry y="30" width="180" height="30" as="geometry" />
        </mxCell>
        <mxCell id="BFY_7eOT1ol8YLlgnoYR-80" value="PK" style="shape=partialRectangle;connectable=0;fillColor=none;top=0;left=0;bottom=0;right=0;fontStyle=1;overflow=hidden;whiteSpace=wrap;html=1;" parent="BFY_7eOT1ol8YLlgnoYR-79" vertex="1">
          <mxGeometry width="30" height="30" as="geometry">
            <mxRectangle width="30" height="30" as="alternateBounds" />
          </mxGeometry>
        </mxCell>
        <mxCell id="BFY_7eOT1ol8YLlgnoYR-81" value="회원ID" style="shape=partialRectangle;connectable=0;fillColor=none;top=0;left=0;bottom=0;right=0;align=left;spacingLeft=6;fontStyle=5;overflow=hidden;whiteSpace=wrap;html=1;" parent="BFY_7eOT1ol8YLlgnoYR-79" vertex="1">
          <mxGeometry x="30" width="150" height="30" as="geometry">
            <mxRectangle width="150" height="30" as="alternateBounds" />
          </mxGeometry>
        </mxCell>
        <mxCell id="BFY_7eOT1ol8YLlgnoYR-82" value="" style="shape=tableRow;horizontal=0;startSize=0;swimlaneHead=0;swimlaneBody=0;fillColor=none;collapsible=0;dropTarget=0;points=[[0,0.5],[1,0.5]];portConstraint=eastwest;top=0;left=0;right=0;bottom=0;" parent="BFY_7eOT1ol8YLlgnoYR-78" vertex="1">
          <mxGeometry y="60" width="180" height="30" as="geometry" />
        </mxCell>
        <mxCell id="BFY_7eOT1ol8YLlgnoYR-83" value="" style="shape=partialRectangle;connectable=0;fillColor=none;top=0;left=0;bottom=0;right=0;editable=1;overflow=hidden;whiteSpace=wrap;html=1;" parent="BFY_7eOT1ol8YLlgnoYR-82" vertex="1">
          <mxGeometry width="30" height="30" as="geometry">
            <mxRectangle width="30" height="30" as="alternateBounds" />
          </mxGeometry>
        </mxCell>
        <mxCell id="BFY_7eOT1ol8YLlgnoYR-84" value="회원PW" style="shape=partialRectangle;connectable=0;fillColor=none;top=0;left=0;bottom=0;right=0;align=left;spacingLeft=6;overflow=hidden;whiteSpace=wrap;html=1;" parent="BFY_7eOT1ol8YLlgnoYR-82" vertex="1">
          <mxGeometry x="30" width="150" height="30" as="geometry">
            <mxRectangle width="150" height="30" as="alternateBounds" />
          </mxGeometry>
        </mxCell>
        <mxCell id="BFY_7eOT1ol8YLlgnoYR-85" value="" style="shape=tableRow;horizontal=0;startSize=0;swimlaneHead=0;swimlaneBody=0;fillColor=none;collapsible=0;dropTarget=0;points=[[0,0.5],[1,0.5]];portConstraint=eastwest;top=0;left=0;right=0;bottom=0;" parent="BFY_7eOT1ol8YLlgnoYR-78" vertex="1">
          <mxGeometry y="90" width="180" height="30" as="geometry" />
        </mxCell>
        <mxCell id="BFY_7eOT1ol8YLlgnoYR-86" value="" style="shape=partialRectangle;connectable=0;fillColor=none;top=0;left=0;bottom=0;right=0;editable=1;overflow=hidden;whiteSpace=wrap;html=1;" parent="BFY_7eOT1ol8YLlgnoYR-85" vertex="1">
          <mxGeometry width="30" height="30" as="geometry">
            <mxRectangle width="30" height="30" as="alternateBounds" />
          </mxGeometry>
        </mxCell>
        <mxCell id="BFY_7eOT1ol8YLlgnoYR-87" value="회원이름" style="shape=partialRectangle;connectable=0;fillColor=none;top=0;left=0;bottom=0;right=0;align=left;spacingLeft=6;overflow=hidden;whiteSpace=wrap;html=1;" parent="BFY_7eOT1ol8YLlgnoYR-85" vertex="1">
          <mxGeometry x="30" width="150" height="30" as="geometry">
            <mxRectangle width="150" height="30" as="alternateBounds" />
          </mxGeometry>
        </mxCell>
        <mxCell id="BFY_7eOT1ol8YLlgnoYR-88" value="" style="shape=tableRow;horizontal=0;startSize=0;swimlaneHead=0;swimlaneBody=0;fillColor=none;collapsible=0;dropTarget=0;points=[[0,0.5],[1,0.5]];portConstraint=eastwest;top=0;left=0;right=0;bottom=0;" parent="BFY_7eOT1ol8YLlgnoYR-78" vertex="1">
          <mxGeometry y="120" width="180" height="30" as="geometry" />
        </mxCell>
        <mxCell id="BFY_7eOT1ol8YLlgnoYR-89" value="" style="shape=partialRectangle;connectable=0;fillColor=none;top=0;left=0;bottom=0;right=0;editable=1;overflow=hidden;whiteSpace=wrap;html=1;" parent="BFY_7eOT1ol8YLlgnoYR-88" vertex="1">
          <mxGeometry width="30" height="30" as="geometry">
            <mxRectangle width="30" height="30" as="alternateBounds" />
          </mxGeometry>
        </mxCell>
        <mxCell id="BFY_7eOT1ol8YLlgnoYR-90" value="회원 연락처" style="shape=partialRectangle;connectable=0;fillColor=none;top=0;left=0;bottom=0;right=0;align=left;spacingLeft=6;overflow=hidden;whiteSpace=wrap;html=1;" parent="BFY_7eOT1ol8YLlgnoYR-88" vertex="1">
          <mxGeometry x="30" width="150" height="30" as="geometry">
            <mxRectangle width="150" height="30" as="alternateBounds" />
          </mxGeometry>
        </mxCell>
        <mxCell id="BFY_7eOT1ol8YLlgnoYR-91" value="" style="shape=tableRow;horizontal=0;startSize=0;swimlaneHead=0;swimlaneBody=0;fillColor=none;collapsible=0;dropTarget=0;points=[[0,0.5],[1,0.5]];portConstraint=eastwest;top=0;left=0;right=0;bottom=0;" parent="BFY_7eOT1ol8YLlgnoYR-78" vertex="1">
          <mxGeometry y="150" width="180" height="30" as="geometry" />
        </mxCell>
        <mxCell id="BFY_7eOT1ol8YLlgnoYR-92" value="" style="shape=partialRectangle;connectable=0;fillColor=none;top=0;left=0;bottom=0;right=0;editable=1;overflow=hidden;whiteSpace=wrap;html=1;" parent="BFY_7eOT1ol8YLlgnoYR-91" vertex="1">
          <mxGeometry width="30" height="30" as="geometry">
            <mxRectangle width="30" height="30" as="alternateBounds" />
          </mxGeometry>
        </mxCell>
        <mxCell id="BFY_7eOT1ol8YLlgnoYR-93" value="회원 주소" style="shape=partialRectangle;connectable=0;fillColor=none;top=0;left=0;bottom=0;right=0;align=left;spacingLeft=6;overflow=hidden;whiteSpace=wrap;html=1;" parent="BFY_7eOT1ol8YLlgnoYR-91" vertex="1">
          <mxGeometry x="30" width="150" height="30" as="geometry">
            <mxRectangle width="150" height="30" as="alternateBounds" />
          </mxGeometry>
        </mxCell>
        <mxCell id="BFY_7eOT1ol8YLlgnoYR-94" value="" style="endArrow=classic;html=1;rounded=0;exitX=0.724;exitY=0.192;exitDx=0;exitDy=0;exitPerimeter=0;" parent="1" source="BFY_7eOT1ol8YLlgnoYR-53" edge="1">
          <mxGeometry width="50" height="50" relative="1" as="geometry">
            <mxPoint x="230" y="2580" as="sourcePoint" />
            <mxPoint x="320" y="2580" as="targetPoint" />
          </mxGeometry>
        </mxCell>
        <mxCell id="BFY_7eOT1ol8YLlgnoYR-98" value="수강신청 Table" style="shape=table;startSize=30;container=1;collapsible=1;childLayout=tableLayout;fixedRows=1;rowLines=0;fontStyle=1;align=center;resizeLast=1;html=1;" parent="1" vertex="1">
          <mxGeometry x="900" y="2320" width="180" height="150" as="geometry" />
        </mxCell>
        <mxCell id="BFY_7eOT1ol8YLlgnoYR-99" value="" style="shape=tableRow;horizontal=0;startSize=0;swimlaneHead=0;swimlaneBody=0;fillColor=none;collapsible=0;dropTarget=0;points=[[0,0.5],[1,0.5]];portConstraint=eastwest;top=0;left=0;right=0;bottom=1;" parent="BFY_7eOT1ol8YLlgnoYR-98" vertex="1">
          <mxGeometry y="30" width="180" height="30" as="geometry" />
        </mxCell>
        <mxCell id="BFY_7eOT1ol8YLlgnoYR-100" value="PK" style="shape=partialRectangle;connectable=0;fillColor=none;top=0;left=0;bottom=0;right=0;fontStyle=1;overflow=hidden;whiteSpace=wrap;html=1;" parent="BFY_7eOT1ol8YLlgnoYR-99" vertex="1">
          <mxGeometry width="30" height="30" as="geometry">
            <mxRectangle width="30" height="30" as="alternateBounds" />
          </mxGeometry>
        </mxCell>
        <mxCell id="BFY_7eOT1ol8YLlgnoYR-101" value="수강신청 ID" style="shape=partialRectangle;connectable=0;fillColor=none;top=0;left=0;bottom=0;right=0;align=left;spacingLeft=6;fontStyle=5;overflow=hidden;whiteSpace=wrap;html=1;" parent="BFY_7eOT1ol8YLlgnoYR-99" vertex="1">
          <mxGeometry x="30" width="150" height="30" as="geometry">
            <mxRectangle width="150" height="30" as="alternateBounds" />
          </mxGeometry>
        </mxCell>
        <mxCell id="BFY_7eOT1ol8YLlgnoYR-119" value="" style="shape=tableRow;horizontal=0;startSize=0;swimlaneHead=0;swimlaneBody=0;fillColor=none;collapsible=0;dropTarget=0;points=[[0,0.5],[1,0.5]];portConstraint=eastwest;top=0;left=0;right=0;bottom=1;" parent="BFY_7eOT1ol8YLlgnoYR-98" vertex="1">
          <mxGeometry y="60" width="180" height="30" as="geometry" />
        </mxCell>
        <mxCell id="BFY_7eOT1ol8YLlgnoYR-120" value="FK" style="shape=partialRectangle;connectable=0;fillColor=none;top=0;left=0;bottom=0;right=0;fontStyle=1;overflow=hidden;whiteSpace=wrap;html=1;" parent="BFY_7eOT1ol8YLlgnoYR-119" vertex="1">
          <mxGeometry width="30" height="30" as="geometry">
            <mxRectangle width="30" height="30" as="alternateBounds" />
          </mxGeometry>
        </mxCell>
        <mxCell id="BFY_7eOT1ol8YLlgnoYR-121" value="강의구별번호" style="shape=partialRectangle;connectable=0;fillColor=none;top=0;left=0;bottom=0;right=0;align=left;spacingLeft=6;fontStyle=1;overflow=hidden;whiteSpace=wrap;html=1;" parent="BFY_7eOT1ol8YLlgnoYR-119" vertex="1">
          <mxGeometry x="30" width="150" height="30" as="geometry">
            <mxRectangle width="150" height="30" as="alternateBounds" />
          </mxGeometry>
        </mxCell>
        <mxCell id="BFY_7eOT1ol8YLlgnoYR-122" value="" style="shape=tableRow;horizontal=0;startSize=0;swimlaneHead=0;swimlaneBody=0;fillColor=none;collapsible=0;dropTarget=0;points=[[0,0.5],[1,0.5]];portConstraint=eastwest;top=0;left=0;right=0;bottom=1;" parent="BFY_7eOT1ol8YLlgnoYR-98" vertex="1">
          <mxGeometry y="90" width="180" height="30" as="geometry" />
        </mxCell>
        <mxCell id="BFY_7eOT1ol8YLlgnoYR-123" value="FK" style="shape=partialRectangle;connectable=0;fillColor=none;top=0;left=0;bottom=0;right=0;fontStyle=1;overflow=hidden;whiteSpace=wrap;html=1;" parent="BFY_7eOT1ol8YLlgnoYR-122" vertex="1">
          <mxGeometry width="30" height="30" as="geometry">
            <mxRectangle width="30" height="30" as="alternateBounds" />
          </mxGeometry>
        </mxCell>
        <mxCell id="BFY_7eOT1ol8YLlgnoYR-124" value="회원ID" style="shape=partialRectangle;connectable=0;fillColor=none;top=0;left=0;bottom=0;right=0;align=left;spacingLeft=6;fontStyle=1;overflow=hidden;whiteSpace=wrap;html=1;" parent="BFY_7eOT1ol8YLlgnoYR-122" vertex="1">
          <mxGeometry x="30" width="150" height="30" as="geometry">
            <mxRectangle width="150" height="30" as="alternateBounds" />
          </mxGeometry>
        </mxCell>
        <mxCell id="BFY_7eOT1ol8YLlgnoYR-102" value="" style="shape=tableRow;horizontal=0;startSize=0;swimlaneHead=0;swimlaneBody=0;fillColor=none;collapsible=0;dropTarget=0;points=[[0,0.5],[1,0.5]];portConstraint=eastwest;top=0;left=0;right=0;bottom=0;" parent="BFY_7eOT1ol8YLlgnoYR-98" vertex="1">
          <mxGeometry y="120" width="180" height="30" as="geometry" />
        </mxCell>
        <mxCell id="BFY_7eOT1ol8YLlgnoYR-103" value="" style="shape=partialRectangle;connectable=0;fillColor=none;top=0;left=0;bottom=0;right=0;editable=1;overflow=hidden;whiteSpace=wrap;html=1;" parent="BFY_7eOT1ol8YLlgnoYR-102" vertex="1">
          <mxGeometry width="30" height="30" as="geometry">
            <mxRectangle width="30" height="30" as="alternateBounds" />
          </mxGeometry>
        </mxCell>
        <mxCell id="BFY_7eOT1ol8YLlgnoYR-104" value="수강신청날짜" style="shape=partialRectangle;connectable=0;fillColor=none;top=0;left=0;bottom=0;right=0;align=left;spacingLeft=6;overflow=hidden;whiteSpace=wrap;html=1;" parent="BFY_7eOT1ol8YLlgnoYR-102" vertex="1">
          <mxGeometry x="30" width="150" height="30" as="geometry">
            <mxRectangle width="150" height="30" as="alternateBounds" />
          </mxGeometry>
        </mxCell>
        <mxCell id="BFY_7eOT1ol8YLlgnoYR-118" value="" style="edgeStyle=orthogonalEdgeStyle;rounded=0;orthogonalLoop=1;jettySize=auto;html=1;fontFamily=Helvetica;fontSize=11;fontColor=default;exitX=1;exitY=0.5;exitDx=0;exitDy=0;startArrow=ERoneToMany;startFill=0;endArrow=ERone;endFill=0;" parent="1" source="BFY_7eOT1ol8YLlgnoYR-102" edge="1">
          <mxGeometry relative="1" as="geometry">
            <mxPoint x="1080" y="2424.5" as="sourcePoint" />
            <mxPoint x="1160" y="2455" as="targetPoint" />
          </mxGeometry>
        </mxCell>
        <mxCell id="BFY_7eOT1ol8YLlgnoYR-125" value="강사 서비스" style="rounded=0;whiteSpace=wrap;html=1;" parent="1" vertex="1">
          <mxGeometry x="29" y="2820" width="250" height="50" as="geometry" />
        </mxCell>
        <mxCell id="BFY_7eOT1ol8YLlgnoYR-126" value="&lt;div style=&quot;text-align: justify;&quot;&gt;&lt;span style=&quot;background-color: initial;&quot;&gt;[관리 영역]&lt;/span&gt;&lt;/div&gt;&lt;div style=&quot;text-align: justify;&quot;&gt;&lt;span style=&quot;background-color: initial;&quot;&gt;강사 정보 생성하기 C&amp;nbsp; BL&lt;/span&gt;&lt;/div&gt;&lt;div style=&quot;text-align: justify;&quot;&gt;&lt;span style=&quot;background-color: initial;&quot;&gt;강사 정보 전체 조회하기 R BL&lt;/span&gt;&lt;/div&gt;&lt;div style=&quot;text-align: justify;&quot;&gt;&lt;span style=&quot;background-color: initial;&quot;&gt;강사 정보 부분 조회하기 R BL&lt;/span&gt;&lt;/div&gt;&lt;div style=&quot;text-align: justify;&quot;&gt;&lt;span style=&quot;background-color: initial;&quot;&gt;강사 정보 수정하기 U BL&lt;/span&gt;&lt;/div&gt;&lt;div style=&quot;text-align: justify;&quot;&gt;&lt;span style=&quot;background-color: initial;&quot;&gt;강사 정보 삭제하기 D BL&lt;/span&gt;&lt;/div&gt;&lt;div style=&quot;text-align: justify; border-color: var(--border-color);&quot;&gt;&lt;span style=&quot;border-color: var(--border-color); background-color: initial;&quot;&gt;&lt;br style=&quot;border-color: var(--border-color);&quot;&gt;&lt;/span&gt;&lt;/div&gt;&lt;div style=&quot;text-align: justify; border-color: var(--border-color);&quot;&gt;&lt;span style=&quot;border-color: var(--border-color); background-color: initial;&quot;&gt;[USE]&lt;/span&gt;&lt;/div&gt;&lt;div style=&quot;text-align: justify; border-color: var(--border-color);&quot;&gt;전체 강의 정보 조회하기 R&lt;/div&gt;&lt;div style=&quot;text-align: justify; border-color: var(--border-color);&quot;&gt;내 강의 정보 조회하기 R&lt;/div&gt;&lt;div style=&quot;text-align: justify; border-color: var(--border-color);&quot;&gt;강의 시간표 확인하기 R&lt;/div&gt;" style="rounded=0;whiteSpace=wrap;html=1;" parent="1" vertex="1">
          <mxGeometry x="29" y="2890" width="250" height="260" as="geometry" />
        </mxCell>
        <mxCell id="BFY_7eOT1ol8YLlgnoYR-128" value="강사 ENTITY" style="rounded=0;whiteSpace=wrap;html=1;" parent="1" vertex="1">
          <mxGeometry x="320" y="2820" width="250" height="50" as="geometry" />
        </mxCell>
        <mxCell id="BFY_7eOT1ol8YLlgnoYR-129" value="&lt;div style=&quot;text-align: justify;&quot;&gt;[Attribute]&lt;/div&gt;&lt;div style=&quot;text-align: justify;&quot;&gt;강사 ID(PK)&lt;/div&gt;&lt;div style=&quot;text-align: justify;&quot;&gt;강사 PW&lt;/div&gt;&lt;div style=&quot;text-align: justify;&quot;&gt;강사 이름&lt;/div&gt;&lt;div style=&quot;text-align: justify;&quot;&gt;강사 연락처&lt;/div&gt;&lt;div style=&quot;text-align: justify;&quot;&gt;강사 주소&lt;/div&gt;&lt;div style=&quot;text-align: justify;&quot;&gt;직책&lt;/div&gt;" style="rounded=0;whiteSpace=wrap;html=1;align=center;" parent="1" vertex="1">
          <mxGeometry x="320" y="2890" width="250" height="140" as="geometry" />
        </mxCell>
        <mxCell id="BFY_7eOT1ol8YLlgnoYR-130" value="강사 Table" style="shape=table;startSize=30;container=1;collapsible=1;childLayout=tableLayout;fixedRows=1;rowLines=0;fontStyle=1;align=center;resizeLast=1;html=1;labelBackgroundColor=default;verticalAlign=middle;fontFamily=Helvetica;fontSize=11;fontColor=default;fillColor=none;gradientColor=none;" parent="1" vertex="1">
          <mxGeometry x="640" y="2820" width="180" height="150" as="geometry" />
        </mxCell>
        <mxCell id="BFY_7eOT1ol8YLlgnoYR-131" value="" style="shape=tableRow;horizontal=0;startSize=0;swimlaneHead=0;swimlaneBody=0;fillColor=none;collapsible=0;dropTarget=0;points=[[0,0.5],[1,0.5]];portConstraint=eastwest;top=0;left=0;right=0;bottom=1;labelBackgroundColor=default;align=center;verticalAlign=middle;fontFamily=Helvetica;fontSize=11;fontColor=default;html=1;" parent="BFY_7eOT1ol8YLlgnoYR-130" vertex="1">
          <mxGeometry y="30" width="180" height="30" as="geometry" />
        </mxCell>
        <mxCell id="BFY_7eOT1ol8YLlgnoYR-132" value="PK" style="shape=partialRectangle;connectable=0;fillColor=none;top=0;left=0;bottom=0;right=0;fontStyle=1;overflow=hidden;whiteSpace=wrap;html=1;labelBackgroundColor=default;align=center;verticalAlign=middle;fontFamily=Helvetica;fontSize=11;fontColor=default;" parent="BFY_7eOT1ol8YLlgnoYR-131" vertex="1">
          <mxGeometry width="30" height="30" as="geometry">
            <mxRectangle width="30" height="30" as="alternateBounds" />
          </mxGeometry>
        </mxCell>
        <mxCell id="BFY_7eOT1ol8YLlgnoYR-133" value="강사 ID" style="shape=partialRectangle;connectable=0;fillColor=none;top=0;left=0;bottom=0;right=0;align=left;spacingLeft=6;fontStyle=5;overflow=hidden;whiteSpace=wrap;html=1;labelBackgroundColor=default;verticalAlign=middle;fontFamily=Helvetica;fontSize=11;fontColor=default;" parent="BFY_7eOT1ol8YLlgnoYR-131" vertex="1">
          <mxGeometry x="30" width="150" height="30" as="geometry">
            <mxRectangle width="150" height="30" as="alternateBounds" />
          </mxGeometry>
        </mxCell>
        <mxCell id="BFY_7eOT1ol8YLlgnoYR-134" value="" style="shape=tableRow;horizontal=0;startSize=0;swimlaneHead=0;swimlaneBody=0;fillColor=none;collapsible=0;dropTarget=0;points=[[0,0.5],[1,0.5]];portConstraint=eastwest;top=0;left=0;right=0;bottom=0;labelBackgroundColor=default;align=center;verticalAlign=middle;fontFamily=Helvetica;fontSize=11;fontColor=default;html=1;" parent="BFY_7eOT1ol8YLlgnoYR-130" vertex="1">
          <mxGeometry y="60" width="180" height="30" as="geometry" />
        </mxCell>
        <mxCell id="BFY_7eOT1ol8YLlgnoYR-135" value="" style="shape=partialRectangle;connectable=0;fillColor=none;top=0;left=0;bottom=0;right=0;editable=1;overflow=hidden;whiteSpace=wrap;html=1;labelBackgroundColor=default;align=center;verticalAlign=middle;fontFamily=Helvetica;fontSize=11;fontColor=default;" parent="BFY_7eOT1ol8YLlgnoYR-134" vertex="1">
          <mxGeometry width="30" height="30" as="geometry">
            <mxRectangle width="30" height="30" as="alternateBounds" />
          </mxGeometry>
        </mxCell>
        <mxCell id="BFY_7eOT1ol8YLlgnoYR-136" value="강사 PW" style="shape=partialRectangle;connectable=0;fillColor=none;top=0;left=0;bottom=0;right=0;align=left;spacingLeft=6;overflow=hidden;whiteSpace=wrap;html=1;labelBackgroundColor=default;verticalAlign=middle;fontFamily=Helvetica;fontSize=11;fontColor=default;" parent="BFY_7eOT1ol8YLlgnoYR-134" vertex="1">
          <mxGeometry x="30" width="150" height="30" as="geometry">
            <mxRectangle width="150" height="30" as="alternateBounds" />
          </mxGeometry>
        </mxCell>
        <mxCell id="BFY_7eOT1ol8YLlgnoYR-137" value="" style="shape=tableRow;horizontal=0;startSize=0;swimlaneHead=0;swimlaneBody=0;fillColor=none;collapsible=0;dropTarget=0;points=[[0,0.5],[1,0.5]];portConstraint=eastwest;top=0;left=0;right=0;bottom=0;labelBackgroundColor=default;align=center;verticalAlign=middle;fontFamily=Helvetica;fontSize=11;fontColor=default;html=1;" parent="BFY_7eOT1ol8YLlgnoYR-130" vertex="1">
          <mxGeometry y="90" width="180" height="30" as="geometry" />
        </mxCell>
        <mxCell id="BFY_7eOT1ol8YLlgnoYR-138" value="" style="shape=partialRectangle;connectable=0;fillColor=none;top=0;left=0;bottom=0;right=0;editable=1;overflow=hidden;whiteSpace=wrap;html=1;labelBackgroundColor=default;align=center;verticalAlign=middle;fontFamily=Helvetica;fontSize=11;fontColor=default;" parent="BFY_7eOT1ol8YLlgnoYR-137" vertex="1">
          <mxGeometry width="30" height="30" as="geometry">
            <mxRectangle width="30" height="30" as="alternateBounds" />
          </mxGeometry>
        </mxCell>
        <mxCell id="BFY_7eOT1ol8YLlgnoYR-139" value="강사 이름" style="shape=partialRectangle;connectable=0;fillColor=none;top=0;left=0;bottom=0;right=0;align=left;spacingLeft=6;overflow=hidden;whiteSpace=wrap;html=1;labelBackgroundColor=default;verticalAlign=middle;fontFamily=Helvetica;fontSize=11;fontColor=default;" parent="BFY_7eOT1ol8YLlgnoYR-137" vertex="1">
          <mxGeometry x="30" width="150" height="30" as="geometry">
            <mxRectangle width="150" height="30" as="alternateBounds" />
          </mxGeometry>
        </mxCell>
        <mxCell id="BFY_7eOT1ol8YLlgnoYR-140" value="" style="shape=tableRow;horizontal=0;startSize=0;swimlaneHead=0;swimlaneBody=0;fillColor=none;collapsible=0;dropTarget=0;points=[[0,0.5],[1,0.5]];portConstraint=eastwest;top=0;left=0;right=0;bottom=0;labelBackgroundColor=default;align=center;verticalAlign=middle;fontFamily=Helvetica;fontSize=11;fontColor=default;html=1;" parent="BFY_7eOT1ol8YLlgnoYR-130" vertex="1">
          <mxGeometry y="120" width="180" height="30" as="geometry" />
        </mxCell>
        <mxCell id="BFY_7eOT1ol8YLlgnoYR-141" value="" style="shape=partialRectangle;connectable=0;fillColor=none;top=0;left=0;bottom=0;right=0;editable=1;overflow=hidden;whiteSpace=wrap;html=1;labelBackgroundColor=default;align=center;verticalAlign=middle;fontFamily=Helvetica;fontSize=11;fontColor=default;" parent="BFY_7eOT1ol8YLlgnoYR-140" vertex="1">
          <mxGeometry width="30" height="30" as="geometry">
            <mxRectangle width="30" height="30" as="alternateBounds" />
          </mxGeometry>
        </mxCell>
        <mxCell id="BFY_7eOT1ol8YLlgnoYR-142" value="강사 연락처" style="shape=partialRectangle;connectable=0;fillColor=none;top=0;left=0;bottom=0;right=0;align=left;spacingLeft=6;overflow=hidden;whiteSpace=wrap;html=1;labelBackgroundColor=default;verticalAlign=middle;fontFamily=Helvetica;fontSize=11;fontColor=default;" parent="BFY_7eOT1ol8YLlgnoYR-140" vertex="1">
          <mxGeometry x="30" width="150" height="30" as="geometry">
            <mxRectangle width="150" height="30" as="alternateBounds" />
          </mxGeometry>
        </mxCell>
        <mxCell id="vibM6O2SVgyTgFdfeI1k-1" value="담당하다" style="text;html=1;align=center;verticalAlign=middle;resizable=0;points=[];autosize=1;strokeColor=none;fillColor=none;fontSize=11;fontFamily=Helvetica;fontColor=default;" parent="1" vertex="1">
          <mxGeometry x="850" y="2870" width="70" height="30" as="geometry" />
        </mxCell>
        <mxCell id="vibM6O2SVgyTgFdfeI1k-3" value="T_ID" style="ellipse;whiteSpace=wrap;html=1;align=center;labelBackgroundColor=default;verticalAlign=middle;fontFamily=Helvetica;fontSize=11;fontColor=default;fillColor=none;gradientColor=none;" parent="1" vertex="1">
          <mxGeometry x="925" y="2830" width="50" height="50" as="geometry" />
        </mxCell>
        <mxCell id="vibM6O2SVgyTgFdfeI1k-4" value="강사ID" style="ellipse;whiteSpace=wrap;html=1;align=center;labelBackgroundColor=default;verticalAlign=middle;fontFamily=Helvetica;fontSize=11;fontColor=default;fillColor=none;gradientColor=none;" parent="1" vertex="1">
          <mxGeometry x="925" y="2890" width="50" height="50" as="geometry" />
        </mxCell>
        <mxCell id="vibM6O2SVgyTgFdfeI1k-6" value="담당과목 Table" style="shape=table;startSize=30;container=1;collapsible=1;childLayout=tableLayout;fixedRows=1;rowLines=0;fontStyle=1;align=center;resizeLast=1;html=1;" parent="1" vertex="1">
          <mxGeometry x="640" y="2610" width="180" height="120" as="geometry" />
        </mxCell>
        <mxCell id="vibM6O2SVgyTgFdfeI1k-7" value="" style="shape=tableRow;horizontal=0;startSize=0;swimlaneHead=0;swimlaneBody=0;fillColor=none;collapsible=0;dropTarget=0;points=[[0,0.5],[1,0.5]];portConstraint=eastwest;top=0;left=0;right=0;bottom=1;" parent="vibM6O2SVgyTgFdfeI1k-6" vertex="1">
          <mxGeometry y="30" width="180" height="30" as="geometry" />
        </mxCell>
        <mxCell id="vibM6O2SVgyTgFdfeI1k-8" value="PK" style="shape=partialRectangle;connectable=0;fillColor=none;top=0;left=0;bottom=0;right=0;fontStyle=1;overflow=hidden;whiteSpace=wrap;html=1;" parent="vibM6O2SVgyTgFdfeI1k-7" vertex="1">
          <mxGeometry width="30" height="30" as="geometry">
            <mxRectangle width="30" height="30" as="alternateBounds" />
          </mxGeometry>
        </mxCell>
        <mxCell id="vibM6O2SVgyTgFdfeI1k-9" value="D ID" style="shape=partialRectangle;connectable=0;fillColor=none;top=0;left=0;bottom=0;right=0;align=left;spacingLeft=6;fontStyle=5;overflow=hidden;whiteSpace=wrap;html=1;" parent="vibM6O2SVgyTgFdfeI1k-7" vertex="1">
          <mxGeometry x="30" width="150" height="30" as="geometry">
            <mxRectangle width="150" height="30" as="alternateBounds" />
          </mxGeometry>
        </mxCell>
        <mxCell id="vibM6O2SVgyTgFdfeI1k-29" value="" style="shape=tableRow;horizontal=0;startSize=0;swimlaneHead=0;swimlaneBody=0;fillColor=none;collapsible=0;dropTarget=0;points=[[0,0.5],[1,0.5]];portConstraint=eastwest;top=0;left=0;right=0;bottom=1;" parent="vibM6O2SVgyTgFdfeI1k-6" vertex="1">
          <mxGeometry y="60" width="180" height="30" as="geometry" />
        </mxCell>
        <mxCell id="vibM6O2SVgyTgFdfeI1k-30" value="FK" style="shape=partialRectangle;connectable=0;fillColor=none;top=0;left=0;bottom=0;right=0;fontStyle=1;overflow=hidden;whiteSpace=wrap;html=1;" parent="vibM6O2SVgyTgFdfeI1k-29" vertex="1">
          <mxGeometry width="30" height="30" as="geometry">
            <mxRectangle width="30" height="30" as="alternateBounds" />
          </mxGeometry>
        </mxCell>
        <mxCell id="vibM6O2SVgyTgFdfeI1k-31" value="T ID" style="shape=partialRectangle;connectable=0;fillColor=none;top=0;left=0;bottom=0;right=0;align=left;spacingLeft=6;fontStyle=5;overflow=hidden;whiteSpace=wrap;html=1;" parent="vibM6O2SVgyTgFdfeI1k-29" vertex="1">
          <mxGeometry x="30" width="150" height="30" as="geometry">
            <mxRectangle width="150" height="30" as="alternateBounds" />
          </mxGeometry>
        </mxCell>
        <mxCell id="vibM6O2SVgyTgFdfeI1k-32" value="" style="shape=tableRow;horizontal=0;startSize=0;swimlaneHead=0;swimlaneBody=0;fillColor=none;collapsible=0;dropTarget=0;points=[[0,0.5],[1,0.5]];portConstraint=eastwest;top=0;left=0;right=0;bottom=1;" parent="vibM6O2SVgyTgFdfeI1k-6" vertex="1">
          <mxGeometry y="90" width="180" height="30" as="geometry" />
        </mxCell>
        <mxCell id="vibM6O2SVgyTgFdfeI1k-33" value="FK" style="shape=partialRectangle;connectable=0;fillColor=none;top=0;left=0;bottom=0;right=0;fontStyle=1;overflow=hidden;whiteSpace=wrap;html=1;" parent="vibM6O2SVgyTgFdfeI1k-32" vertex="1">
          <mxGeometry width="30" height="30" as="geometry">
            <mxRectangle width="30" height="30" as="alternateBounds" />
          </mxGeometry>
        </mxCell>
        <mxCell id="vibM6O2SVgyTgFdfeI1k-34" value="강사 ID" style="shape=partialRectangle;connectable=0;fillColor=none;top=0;left=0;bottom=0;right=0;align=left;spacingLeft=6;fontStyle=5;overflow=hidden;whiteSpace=wrap;html=1;" parent="vibM6O2SVgyTgFdfeI1k-32" vertex="1">
          <mxGeometry x="30" width="150" height="30" as="geometry">
            <mxRectangle width="150" height="30" as="alternateBounds" />
          </mxGeometry>
        </mxCell>
        <mxCell id="vibM6O2SVgyTgFdfeI1k-35" value="" style="edgeStyle=orthogonalEdgeStyle;rounded=0;orthogonalLoop=1;jettySize=auto;html=1;fontFamily=Helvetica;fontSize=11;fontColor=default;startArrow=ERmany;startFill=0;endArrow=ERone;endFill=0;" parent="1" edge="1">
          <mxGeometry relative="1" as="geometry">
            <mxPoint x="729.5" y="2735" as="sourcePoint" />
            <mxPoint x="729.5" y="2815" as="targetPoint" />
          </mxGeometry>
        </mxCell>
      </root>
    </mxGraphModel>
  </diagram>
</mxfile>
